<?xml version="1.0" encoding="UTF-8"?>
<svg version="1.1" xmlns="http://www.w3.org/2000/svg" width="3172" height="2463">
<path d="M0 0 C1046.43 0 2092.86 0 3171 0 C3171 812.46 3171 1624.92 3171 2462 C2124.57 2462 1078.14 2462 0 2462 C0 1649.54 0 837.08 0 0 Z " fill="#111111" transform="translate(0,0)"/>
<path d="M0 0 C2.0966154 0.00545173 4.19321946 0.00781128 6.2898407 0.00987244 C38.13390889 0.05858363 69.29226706 2.14095937 100.74723816 7.31785583 C101.86114929 7.49542419 102.97506042 7.67299255 104.12272644 7.85594177 C195.86221365 22.59626895 284.13226506 60.757178 382.01481628 133.88963318 C384.49034693 135.93048074 386.99722031 137.93212719 389.49723816 139.94285583 C394.41425611 143.96519834 399.08109606 148.21624655 403.72770691 152.54441833 C405.97553434 154.62965152 408.26878981 156.65444739 410.58317566 158.66551208 C420.46519826 167.27934764 430.1861223 176.18483754 438.77848816 186.09910583 C440.84356731 188.42641725 443.01711904 190.58633587 445.24723816 192.75535583 C449.22997267 196.69002286 452.73971064 200.87149509 456.23551941 205.23973083 C459.13879342 208.79770894 462.15602177 212.2418855 465.18473816 215.69285583 C470.49459583 221.77982176 475.5455032 227.99888888 480.373703 234.47605896 C481.34963892 235.78470819 482.3295507 237.09039653 483.31217957 238.39402771 C539.50892018 312.97318624 577.66465755 399.64777173 601.74723816 539.31785583 C601.92512878 541.04262146 601.92512878 541.04262146 602.10661316 542.80223083 C603.99932279 562.36023031 603.95221673 581.99544285 603.99221802 601.62590027 C603.99715426 603.71976519 604.00506676 605.81360191 604.01347351 607.90745544 C604.09494102 631.59719055 602.76894227 654.91659292 599.49723816 678.38035583 C599.3918573 679.14936218 599.28647644 679.91836853 599.17790222 680.7106781 C587.42444241 766.08020706 557.44429519 847.30378443 511.74723816 920.31785583 C511.28478699 921.06341736 510.82233582 921.80897888 510.34587097 922.57713318 C491.64234875 952.71401215 469.39171363 980.6629308 445.2865448 1006.63499451 C444.1087282 1007.92265348 442.94355454 1009.22188747 441.78410339 1010.52610779 C436.11767799 1016.89653034 430.22587717 1022.99046362 424.18473816 1029.00535583 C423.29077332 1029.90318787 422.39680847 1030.8010199 421.47575378 1031.72605896 C416.39509864 1036.79928081 411.22010376 1041.67157915 405.74723816 1046.31785583 C404.61804169 1047.29147768 403.48912536 1048.26542454 402.36051941 1049.23973083 C399.41812786 1051.76423409 396.46889813 1054.28072021 393.52018738 1056.7978363 C391.89209405 1058.19366515 390.27334997 1059.59942064 388.65739441 1061.00926208 C379.87281359 1068.62616415 370.61455524 1075.57472653 361.2565155 1082.46873474 C359.65014826 1083.65248892 358.04608075 1084.83937419 356.44499207 1086.03025818 C344.26608208 1095.08706086 331.67088206 1103.36345358 318.74723816 1111.31785583 C317.86052429 1111.86441833 316.97381042 1112.41098083 316.06022644 1112.97410583 C301.01700541 1122.18887477 285.50962907 1130.40677253 269.74723816 1138.31785583 C268.70696472 1138.84266541 267.66669128 1139.36747498 266.59489441 1139.90818787 C231.90708114 1157.31285341 195.17723177 1170.20341241 157.74723816 1180.31785583 C157.01126404 1180.5187532 156.27528992 1180.71965057 155.51701355 1180.92663574 C143.60924552 1184.17272662 131.66539946 1186.97764098 119.55973816 1189.38035583 C118.69973206 1189.55183136 117.83972595 1189.72330688 116.95365906 1189.89997864 C100.952852 1193.06826784 84.99319196 1195.47666791 68.75608826 1197.11210632 C66.71350589 1197.32131075 64.67252631 1197.54260006 62.6315155 1197.7665863 C12.54128362 1203.207347 -38.53360419 1201.26038425 -88.25276184 1193.31785583 C-90.31514028 1193.00585334 -92.37763842 1192.69464093 -94.44026184 1192.38426208 C-108.20791407 1190.25743401 -121.73299313 1187.32387825 -135.26789856 1184.03953552 C-137.94856865 1183.39140361 -140.63268102 1182.76163508 -143.31916809 1182.13816833 C-204.83377764 1167.61938745 -265.43836304 1141.03929835 -318.25276184 1106.31785583 C-319.18684875 1105.70829041 -320.12093567 1105.09872498 -321.08332825 1104.47068787 C-340.35028234 1091.87993553 -358.80435023 1078.62835409 -376.43537903 1063.83103943 C-378.88692021 1061.78984487 -381.38429448 1059.80748097 -383.87776184 1057.81785583 C-389.7417213 1053.03386456 -395.20652146 1047.83877841 -400.70588684 1042.64598083 C-403.44486393 1040.06252926 -406.232678 1037.54880858 -409.06526184 1035.06785583 C-414.02517918 1030.63399033 -418.72951409 1025.95042801 -423.44026184 1021.25535583 C-424.5816864 1020.1208197 -424.5816864 1020.1208197 -425.74617004 1018.96336365 C-429.87112101 1014.82715831 -433.8262095 1010.6042758 -437.63777161 1006.17796326 C-440.0621736 1003.38559458 -442.59846133 1000.70231187 -445.12776184 998.00535583 C-450.42579148 992.30321124 -455.39750211 986.40322332 -460.25276184 980.31785583 C-461.17367369 979.18816375 -462.09560295 978.05930052 -463.01838684 976.93113708 C-515.30441685 912.72919975 -555.07722962 835.90000952 -575.6653595 755.59715271 C-576.31735374 753.06721995 -576.99478894 750.54461643 -577.67073059 748.02098083 C-583.75971487 724.91244666 -587.86007451 701.48695895 -591.00276184 677.81785583 C-591.15420151 676.69005707 -591.15420151 676.69005707 -591.30870056 675.53947449 C-592.02643653 670.13946447 -592.66331953 664.73330716 -593.25276184 659.31785583 C-593.34738708 658.46877655 -593.44201233 657.61969727 -593.539505 656.74488831 C-595.41997076 639.31994195 -595.56504452 621.93860962 -595.51350403 604.43626404 C-595.50210027 600.53495517 -595.50889883 596.63391891 -595.52038002 592.73261929 C-595.56348236 575.49801833 -595.20044641 558.46356107 -593.25276184 541.31785583 C-593.0938234 539.82908324 -592.93558872 538.3402353 -592.77815247 536.8513031 C-592.34655619 532.85652627 -591.86895197 528.86828056 -591.37776184 524.88035583 C-591.29316711 524.18883423 -591.20857239 523.49731262 -591.12141418 522.78483582 C-588.17372344 498.80203564 -584.19970242 475.03975807 -577.51838684 451.79832458 C-576.68653267 448.89500274 -575.90379948 445.98691349 -575.17463684 443.05613708 C-553.48779877 356.04585502 -508.03573632 276.05678437 -450.19026184 208.13035583 C-449.76865784 207.63318054 -449.34705383 207.13600525 -448.91267395 206.62376404 C-439.16254962 195.27596815 -428.70475675 184.60744941 -418.11506653 174.04978943 C-415.987914 171.92804575 -413.86622623 169.80094092 -411.74494934 167.67332458 C-410.36766601 166.29670143 -408.99007286 164.92038818 -407.61213684 163.54441833 C-406.99111084 162.9213681 -406.37008484 162.29831787 -405.73023987 161.65638733 C-401.39836987 157.347225 -396.88245985 153.3032924 -392.25276184 149.31785583 C-391.06149125 148.27230834 -389.87121153 147.22562944 -388.68244934 146.17723083 C-380.41856709 138.93267194 -371.98498508 131.98945419 -363.25276184 125.31785583 C-362.33938049 124.6169281 -362.33938049 124.6169281 -361.407547 123.90184021 C-311.4992931 85.69184318 -256.26815862 55.77167193 -197.25276184 34.31785583 C-196.24044495 33.94604187 -195.22812805 33.57422791 -194.18513489 33.19114685 C-187.96974529 30.91319794 -181.73764842 28.84092503 -175.39143372 26.95555115 C-173.82127736 26.48737211 -172.25245284 26.01472037 -170.68440247 25.53953552 C-157.84825885 21.65315986 -145.01504745 18.1953055 -131.90510559 15.36082458 C-129.175041 14.76774723 -126.54400853 14.11069434 -123.85823059 13.32566833 C-107.92937833 8.87318309 -91.11768773 6.89067505 -74.75276184 4.63035583 C-74.03030273 4.52798615 -73.30784363 4.42561646 -72.56349182 4.32014465 C-48.45832974 0.92901914 -24.3233723 -0.06589919 0 0 Z " fill="#111111" transform="translate(1581.2527618408203,85.68214416503906)"/>
<path d="M0 0 C7.37628243 6.24682776 7.37628243 6.24682776 10.57276917 9.47270203 C11.1879541 10.09084778 11.80313904 10.70899353 12.43696594 11.34587097 C13.08497665 12.00219009 13.73298737 12.65850922 14.40063477 13.3347168 C15.45572739 14.3968187 15.45572739 14.3968187 16.53213501 15.4803772 C18.04783408 17.00651817 19.56242969 18.5337557 21.07602119 20.06198692 C23.47365994 22.48177033 25.87535159 24.89746084 28.27830505 27.31196594 C35.10608137 34.1732301 41.92963493 41.03865012 48.74291992 47.91430664 C52.92017414 52.1292194 57.10471799 56.33677575 61.2940197 60.53971291 C62.8855798 62.13931868 64.47435996 63.74169548 66.06027412 65.34689903 C68.27624356 67.58936481 70.50136193 69.82236042 72.72875977 72.0534668 C73.37879471 72.71585861 74.02882965 73.37825043 74.69856262 74.06071472 C79.19072795 78.53322876 83.70571857 82.42510357 90.375 82.4375 C91.40753906 82.46650391 91.40753906 82.46650391 92.4609375 82.49609375 C100.40911315 80.94314251 105.60566444 75.96056972 111.06835938 70.38574219 C111.83030609 69.62437958 112.59225281 68.86301697 113.37728882 68.07858276 C115.87571692 65.57738371 118.35970273 63.06234984 120.84375 60.546875 C122.58021929 58.80293988 124.31757794 57.05988991 126.05578613 55.31768799 C130.6151563 50.74308877 135.16238292 46.15660282 139.70715332 41.56750488 C144.35215749 36.8814897 149.00858974 32.20686086 153.6640625 27.53125 C162.78723694 18.36525275 171.89801222 9.18703382 181 0 C186.0528262 4.22792782 190.77338682 8.64814101 195.40063477 13.3347168 C196.45572739 14.3968187 196.45572739 14.3968187 197.53213501 15.4803772 C199.04783408 17.00651817 200.56242969 18.5337557 202.07602119 20.06198692 C204.47365994 22.48177033 206.87535159 24.89746084 209.27830505 27.31196594 C216.10608137 34.1732301 222.92963493 41.03865012 229.74291992 47.91430664 C233.92017414 52.1292194 238.10471799 56.33677575 242.2940197 60.53971291 C243.8855798 62.13931868 245.47435996 63.74169548 247.06027412 65.34689903 C249.27624356 67.58936481 251.50136193 69.82236042 253.72875977 72.0534668 C254.37879471 72.71585861 255.02882965 73.37825043 255.69856262 74.06071472 C260.19072795 78.53322876 264.70571857 82.42510357 271.375 82.4375 C272.40753906 82.46650391 272.40753906 82.46650391 273.4609375 82.49609375 C281.40911315 80.94314251 286.60566444 75.96056972 292.06835938 70.38574219 C292.83030609 69.62437958 293.59225281 68.86301697 294.37728882 68.07858276 C296.87571692 65.57738371 299.35970273 63.06234984 301.84375 60.546875 C303.58021929 58.80293988 305.31757794 57.05988991 307.05578613 55.31768799 C311.6151563 50.74308877 316.16238292 46.15660282 320.70715332 41.56750488 C325.35215749 36.8814897 330.00858974 32.20686086 334.6640625 27.53125 C343.78723772 18.36525197 352.89774433 9.18676918 362 0 C368.3641041 5.25025599 374.15913685 11.02174877 379.97813416 16.85787964 C381.08528405 17.96459299 382.19265386 19.07108636 383.30022341 20.17737973 C386.33087548 23.20580316 389.35841304 26.23732332 392.38543761 29.26937199 C395.65483285 32.543095 398.92712717 35.81391797 402.19906616 39.08509827 C407.86348743 44.74899578 413.52607825 50.41471796 419.1874218 56.08169174 C427.37272746 64.27513243 435.56080062 72.46580284 443.74954683 80.65580477 C457.0359165 93.9443618 470.32005253 107.23514939 483.6027832 120.52734375 C496.50395371 133.43769652 509.40617651 146.34699617 522.30981445 159.25488281 C523.10550321 160.05083429 523.90119196 160.84678577 524.7209925 161.66685699 C528.71282787 165.65999742 532.70468392 169.65311717 536.69655025 173.64622664 C569.8009071 206.7609463 602.90163879 239.87928775 636 273 C635.04915442 274.75695336 634.09664253 276.513005 633.14343262 278.26867676 C632.6131823 279.24667488 632.08293198 280.224673 631.53661346 281.23230743 C629.67086315 284.59282938 627.66049916 287.7681805 625.53125 290.96875 C625.1335994 291.56797775 624.73594879 292.16720551 624.32624817 292.78459167 C623.05634815 294.69348017 621.77894358 296.59716099 620.5 298.5 C620.06102386 299.1558609 619.62204773 299.8117218 619.16976929 300.48745728 C605.76706666 320.4985953 591.25829151 339.23260423 575.41845703 357.37011719 C574.25992093 358.70133698 573.11097265 360.04089574 571.96484375 361.3828125 C567.99893877 366.01438947 563.73856153 370.28493255 559.3984375 374.56640625 C557.36692778 376.6276938 555.48268941 378.72186556 553.625 380.9375 C549.3839281 385.88047424 544.51101632 390.12581546 539.6796875 394.47314453 C537.33526681 396.6042502 535.03143812 398.77739014 532.72387695 400.94824219 C526.3619043 406.91981909 519.8593102 412.59937855 513 418 C512.35579102 418.51143555 511.71158203 419.02287109 511.04785156 419.54980469 C500.28918139 428.08288268 489.32219968 436.23083809 478 444 C477.38092773 444.42732422 476.76185547 444.85464844 476.12402344 445.29492188 C429.93218631 477.08125317 377.54059459 501.72074301 323.40527344 516.34130859 C321.10870813 516.97022995 318.82338011 517.62889326 316.5390625 518.30078125 C297.44359964 523.88190519 278.02977191 527.27925991 258.375 530.1875 C257.10630569 530.37733963 257.10630569 530.37733963 255.8119812 530.5710144 C249.88318082 531.4519933 243.94785117 532.25854463 238 533 C236.78153381 533.15417389 236.78153381 533.15417389 235.53845215 533.3114624 C218.80332111 535.34701807 202.0437792 535.30989598 185.21435547 535.26074219 C181.28828619 535.24934842 177.3624881 535.25612496 173.43642807 535.26762104 C156.53014056 535.3096665 139.8075342 535.04845402 123 533 C121.76121094 532.85933105 120.52242187 532.71866211 119.24609375 532.57373047 C46.63982106 523.88188084 -24.95275733 499.67948684 -87.3984375 461.58447266 C-89.88012265 460.07301089 -92.37472568 458.58592121 -94.875 457.10546875 C-115.01383445 445.10669045 -134.05350567 431.06779365 -152 416 C-153.04683585 415.12885921 -154.09371266 414.25776762 -155.140625 413.38671875 C-162.05066732 407.61306776 -168.77198103 401.66019872 -175.36083984 395.52148438 C-177.15623191 393.85498402 -178.96255047 392.20079925 -180.76953125 390.546875 C-187.15875201 384.67459956 -193.32438629 378.7783924 -199.02734375 372.22265625 C-200.93886175 370.06888646 -202.93225717 368.06549941 -205 366.0625 C-208.83011719 362.28516002 -212.17664917 358.21394105 -215.5390625 354.01953125 C-217.69057657 351.37965764 -219.89646522 348.81361819 -222.14355469 346.25634766 C-234.43987893 332.19703691 -245.14025691 317.01472062 -255.5 301.5 C-255.92297363 300.86787598 -256.34594727 300.23575195 -256.78173828 299.58447266 C-259.56416061 295.41680073 -262.30623531 291.22553671 -265 287 C-265.54793213 286.14269287 -265.54793213 286.14269287 -266.10693359 285.26806641 C-267.13921612 283.63654504 -268.14829371 281.99041126 -269.15625 280.34375 C-269.73181641 279.40724609 -270.30738281 278.47074219 -270.90039062 277.50585938 C-272 275 -272 275 -271.84093529 273.13866496 C-270.67604704 270.17612348 -268.89633309 268.52407236 -266.64464474 266.27550125 C-266.18594162 265.81333661 -265.72723851 265.35117196 -265.2546353 264.87500232 C-263.70732098 263.31971273 -262.14948899 261.77540273 -260.59153748 260.23077393 C-259.47221217 259.11014104 -258.35354608 257.98884939 -257.23548561 256.86695457 C-254.15464132 253.77938418 -251.0644902 250.70127611 -247.97278416 247.6245873 C-244.64288508 244.3076137 -241.32162937 240.98200588 -237.99932861 237.65742493 C-232.2398398 231.89636117 -226.4748728 226.14082649 -220.70617485 220.38898468 C-212.36556229 212.07272759 -204.03322167 203.74822323 -195.70289279 195.42166659 C-182.18807761 181.91342132 -168.66657306 168.41189257 -155.14086914 154.91455078 C-141.99999064 141.8011989 -128.86225891 128.68470759 -115.72875977 115.56396484 C-114.91954669 114.75553994 -114.11033361 113.94711503 -113.27659892 113.1141924 C-109.2171347 109.05864322 -105.1577324 105.00303206 -101.0983609 100.94739008 C-67.40850334 67.28864522 -33.70779162 33.64078398 0 0 Z " fill="#34CFB9" transform="translate(1404,675)"/>
<path d="M0 0 C50.49 0 100.98 0 153 0 C153 253.77 153 507.54 153 769 C105.15 769 57.3 769 8 769 C8 745.57 8 722.14 8 698 C7.01 698 6.02 698 5 698 C4.75378906 698.69867187 4.50757812 699.39734375 4.25390625 700.1171875 C-9.91144911 732.68426618 -45.44666212 757.30296911 -77.32177734 769.91894531 C-136.19677656 792.42269726 -207.92187528 789.62482163 -265.25830078 764.25097656 C-288.05556798 753.84908902 -307.98968683 739.31595262 -326 722 C-326.54688477 721.48034668 -327.09376953 720.96069336 -327.65722656 720.42529297 C-335.43349016 713.01204344 -342.31871993 705.23644133 -348.76074219 696.640625 C-349.89445999 695.139722 -351.05904256 693.66226203 -352.2265625 692.1875 C-359.65575732 682.67813063 -365.85120472 672.36646207 -372 662 C-372.39074707 661.34161133 -372.78149414 660.68322266 -373.18408203 660.00488281 C-388.66964677 633.48940242 -398.74209411 602.94311377 -405 573 C-405.17869629 572.17967285 -405.35739258 571.3593457 -405.54150391 570.51416016 C-411.46506387 543.17588747 -413.22577311 515.16417903 -413.1875 487.25 C-413.18656342 486.35848236 -413.18562683 485.46696472 -413.18466187 484.5484314 C-413.02086733 412.0762096 -395.60253699 341.51622249 -350 284 C-349.26910156 283.07316406 -348.53820313 282.14632813 -347.78515625 281.19140625 C-329.89434162 258.90068061 -308.94598803 240.14401713 -284 226 C-283.39607422 225.65163086 -282.79214844 225.30326172 -282.16992188 224.94433594 C-265.90415376 215.62968063 -248.22120455 208.44010961 -230 204 C-229.37512695 203.83693359 -228.75025391 203.67386719 -228.10644531 203.50585938 C-207.67875773 198.19247157 -186.90278047 196.72687139 -165.875 196.6875 C-165.10884369 196.68391479 -164.34268738 196.68032959 -163.55331421 196.67663574 C-115.04657681 196.55421469 -64.92879263 212.75454106 -29 246 C-28.23115479 246.7110791 -28.23115479 246.7110791 -27.44677734 247.43652344 C-18.41495213 255.90014932 -10.47920743 265.17170216 -4 275.75 C-2.37354869 279.03296018 -2.37354869 279.03296018 0 280 C0 187.6 0 95.2 0 0 Z " fill="#FDFDD4" transform="translate(2932,1457)"/>
<path d="M0 0 C57.42 0 114.84 0 174 0 C179.62437337 13.49849609 179.62437337 13.49849609 181.66870117 19.02636719 C181.89452157 19.63486071 182.12034197 20.24335423 182.35300541 20.87028694 C183.08524712 22.84499 183.81411463 24.8209194 184.54296875 26.796875 C185.06875655 28.21656804 185.59478405 29.63617231 186.12103271 31.05569458 C187.23432411 34.05990404 188.34623193 37.06462013 189.45700073 40.06976318 C192.10280558 47.22731895 194.75662508 54.3819049 197.40965462 61.53678513 C198.29594392 63.9271763 199.18197285 66.31766386 200.06797791 68.7081604 C204.66431922 81.10720039 209.28782292 93.49585497 213.9375 105.875 C214.28154877 106.79138245 214.62559753 107.70776489 214.98007202 108.6519165 C216.81520822 113.53971846 218.65121457 118.4271929 220.48779297 123.31445312 C225.66193947 137.08335517 230.8325278 150.85359173 236 164.625 C236.28648911 165.38844475 236.57297821 166.1518895 236.8681488 166.93846893 C245.68755126 190.44188466 254.45745038 213.96325878 263.1875 237.5 C271.39948262 259.63934967 279.6404296 281.76738705 287.9375 303.875 C288.18121464 304.52443321 288.42492928 305.17386642 288.67602921 305.84297943 C292.18652671 315.19728643 295.69937434 324.55071032 299.21268463 333.90396118 C303.93535077 346.47692997 308.65657048 359.05044061 313.375 371.625 C313.7970295 372.74962269 313.7970295 372.74962269 314.22758484 373.89696503 C323.1999042 397.80760119 332.11616551 421.73862459 340.99728012 445.68327332 C349.18659482 467.76255253 357.41275267 489.82758874 365.6875 511.875 C365.94163414 512.55212036 366.19576828 513.22924072 366.45760345 513.92687988 C369.12788222 521.04117721 371.79943803 528.15499444 374.47167969 535.26855469 C377.47477486 543.26309572 380.47354511 551.2592549 383.47122192 559.25582886 C384.90899766 563.09120137 386.34703392 566.92647618 387.78515625 570.76171875 C388.09406296 571.58553543 388.40296967 572.40935211 388.72123718 573.25813293 C391.06277936 579.50216188 393.40552068 585.74574035 395.74856091 591.98920727 C398.91623081 600.43010844 402.08328843 608.87123925 405.25 617.3125 C405.54476856 618.09821507 405.83953712 618.88393013 406.14323807 619.69345474 C414.07596267 640.8389485 421.99147511 661.99058105 429.85476685 683.16201782 C434.35088097 695.26619375 438.88351042 707.35587586 443.46127701 719.4293766 C444.27248496 721.56921453 445.0831002 723.70927605 445.89352417 725.84941101 C446.42998155 727.26590387 446.96645003 728.68239253 447.50292969 730.09887695 C447.76743738 730.79728919 448.03194508 731.49570143 448.30446815 732.21527767 C449.87606089 736.36331935 451.45237415 740.50952997 453.03213406 744.65446758 C453.77245011 746.5990626 454.51055286 748.54448035 455.24769592 750.49028015 C456.15396966 752.88215748 457.06398477 755.27262154 457.97825623 757.66145325 C458.3781929 758.71999008 458.77812958 759.77852692 459.19018555 760.86914062 C459.54147018 761.79231079 459.89275482 762.71548096 460.25468445 763.66662598 C461 766 461 766 461 769 C403.25 769 345.5 769 286 769 C283.42021594 762.55053985 280.97710684 756.20224471 278.8203125 749.62109375 C278.531492 748.74902283 278.24267151 747.8769519 277.94509888 746.97845459 C277.32564494 745.10765875 276.70746239 743.23644151 276.0904541 741.36483765 C274.41938668 736.29802136 272.73697456 731.23497515 271.0546875 726.171875 C270.71211914 725.14043869 270.36955078 724.10900238 270.01660156 723.04631042 C266.81176911 713.40924582 263.54276981 703.79481797 260.25 694.1875 C259.10915847 690.85814705 257.96846646 687.52874302 256.828125 684.19921875 C256.3852565 682.90624123 256.3852565 682.90624123 255.93344116 681.58714294 C253.31102663 673.92364443 250.70862848 666.25341229 248.109375 658.58203125 C247.68682434 657.33512009 247.26427368 656.08820892 246.82891846 654.80351257 C245.14228387 649.82562976 243.45592047 644.84765659 241.77160645 639.86898804 C240.59865388 636.40193087 239.42467708 632.93522325 238.25 629.46875 C237.88154968 628.38092728 237.51309937 627.29310455 237.13348389 626.1723175 C234.71374656 619.04756949 232.24482172 611.94206664 229.67480469 604.86999512 C228 600.2121705 228 600.2121705 228 598 C85.44 598.495 85.44 598.495 -60 599 C-65.61 615.17 -71.22 631.34 -77 648 C-84.25 668.3125 -84.25 668.3125 -87.890625 678.4609375 C-91.08712284 687.38957257 -94.22958369 696.33688471 -97.359375 705.2890625 C-97.59195259 705.95423323 -97.82453018 706.61940395 -98.06415558 707.30473137 C-100.38661483 713.94811838 -102.70615342 720.59251781 -105.02093887 727.23858261 C-105.67716783 729.12204543 -106.33421772 731.00522215 -106.99127197 732.88839722 C-107.79163666 735.18235813 -108.59073128 737.47676286 -109.38812256 739.77175903 C-112.80609974 749.56321919 -116.41271569 759.26308545 -120 769 C-176.43 769 -232.86 769 -291 769 C-290.1015664 764.50783201 -288.80083164 760.49194136 -287.18359375 756.23828125 C-286.89613281 755.47316727 -286.60867188 754.70805328 -286.3125 753.91975403 C-285.35799757 751.38254077 -284.39783342 748.84751142 -283.4375 746.3125 C-282.75568963 744.50448921 -282.07413526 742.69638187 -281.39282227 740.88818359 C-276.1179646 726.90235951 -270.79921375 712.93310227 -265.46972656 698.96801758 C-259.6887923 683.81965466 -253.93537117 668.66093637 -248.1875 653.5 C-241.29863374 635.33068146 -234.40468707 617.163313 -227.5 599 C-220.7221206 581.16933685 -213.95200697 563.33574064 -207.1875 545.5 C-206.72942963 544.292229 -206.27135925 543.08445801 -205.79940796 541.84008789 C-202.53271971 533.22680828 -199.26632691 524.61341664 -196 516 C-192.2710348 506.16659025 -188.54194125 496.33322921 -184.8125 486.5 C-184.35418793 485.29158447 -183.89587585 484.08316895 -183.42367554 482.83813477 C-176.73576781 465.20507751 -170.04019331 447.57494769 -163.3394165 429.94677734 C-156.94868139 413.13374824 -150.56590221 396.31771162 -144.1875 379.5 C-143.72942963 378.292229 -143.27135925 377.08445801 -142.79940796 375.84008789 C-139.53271971 367.22680828 -136.26632691 358.61341664 -133 350 C-129.2710348 340.16659025 -125.54194125 330.33322921 -121.8125 320.5 C-121.35418793 319.29158447 -120.89587585 318.08316895 -120.42367554 316.83813477 C-113.73678499 299.20775936 -107.04240396 281.58024403 -100.34243774 263.95483398 C-93.88720282 246.97282796 -87.44176937 229.98711812 -81 213 C-74.17318894 194.99751664 -67.34122345 176.99701143 -60.5 159 C-53.72217804 141.16931483 -46.9521671 123.33568006 -40.1875 105.5 C-39.73341766 104.30286377 -39.27933533 103.10572754 -38.81149292 101.87231445 C-34.03149713 89.27038211 -29.25271486 76.66799222 -24.47727966 64.06433105 C-22.72878379 59.44964509 -20.97977157 54.83515487 -19.23063755 50.22071075 C-18.04381668 47.08960615 -16.85737727 43.95835826 -15.67147827 40.8269043 C-14.35591175 37.35308432 -13.03937397 33.87963376 -11.72265625 30.40625 C-11.34744843 29.41471924 -10.9722406 28.42318848 -10.58566284 27.40161133 C-7.11263158 18.24511985 -3.54992149 9.12836954 0 0 Z " fill="#FDFDD4" transform="translate(377,1457)"/>
<path d="M0 0 C2.59252279 0.01073913 5.18435308 0.00001064 7.77685547 -0.01269531 C24.54623327 -0.02833737 40.88390179 1.85125806 57.40576172 4.63574219 C59.24750977 4.92964844 59.24750977 4.92964844 61.12646484 5.22949219 C69.65771444 6.65061758 77.81946198 8.76263912 86.09326172 11.26074219 C88.11370633 11.82463684 90.13448468 12.38733868 92.15576172 12.94824219 C107.37649394 17.68151867 122.03504451 24.79797077 136.09326172 32.26074219 C137.24826172 32.87304688 138.40326172 33.48535156 139.59326172 34.11621094 C158.2261281 44.38546116 174.65607421 57.71249385 190.09326172 72.26074219 C190.82544922 72.95039062 191.55763672 73.64003906 192.31201172 74.35058594 C197.72366071 79.60117395 202.40811695 85.36261495 207.09326172 91.26074219 C207.9808306 92.35746227 208.86886613 93.45380483 209.75732422 94.54980469 C265.26756814 163.48994633 275.09326172 245.00299852 275.09326172 331.26074219 C142.43326172 331.26074219 9.77326172 331.26074219 -126.90673828 331.26074219 C-124.10235618 367.71770951 -118.15448585 402.17333784 -94.90673828 431.26074219 C-94.18873047 432.16179688 -93.47072266 433.06285156 -92.73095703 433.99121094 C-70.95077608 459.6735084 -38.35414027 467.94372633 -6.16601562 470.99707031 C24.79073938 473.50143701 54.9935835 467.59075217 82.09326172 452.26074219 C82.76196289 451.88578613 83.43066406 451.51083008 84.11962891 451.12451172 C104.39528077 439.58306077 118.26678189 424.39827793 128.09326172 403.26074219 C128.75326172 401.94074219 129.41326172 400.62074219 130.09326172 399.26074219 C174.31326172 399.26074219 218.53326172 399.26074219 264.09326172 399.26074219 C257.19572541 430.29965557 241.53468529 462.22771894 222.33447266 487.61816406 C221.0974952 489.25513974 219.87984186 490.90521812 218.66357422 492.55761719 C212.65967659 500.62858818 206.05609307 508.01002454 199.09326172 515.26074219 C198.60599609 515.77523926 198.11873047 516.28973633 197.61669922 516.81982422 C151.29900504 565.59891993 82.75606125 585.74492702 17.09326172 587.44824219 C-11.77736265 587.89002149 -40.73382809 585.54238004 -68.82617188 578.75927734 C-70.79296476 578.28800404 -72.76574951 577.84194353 -74.73876953 577.39746094 C-116.06651125 567.73587765 -156.25992533 548.78219291 -187.90673828 520.26074219 C-188.43960449 519.78813965 -188.9724707 519.31553711 -189.52148438 518.82861328 C-247.1516935 467.65681478 -275.17708861 392.90991214 -279.90673828 317.26074219 C-280.25851688 309.28410754 -280.29664655 301.3064235 -280.28173828 293.32324219 C-280.28142105 291.73456833 -280.28142105 291.73456833 -280.28109741 290.11380005 C-280.2449623 271.8576888 -279.07739712 254.26080949 -275.90673828 236.26074219 C-275.72481934 235.19259277 -275.54290039 234.12444336 -275.35546875 233.02392578 C-271.19242673 209.20269429 -263.66415422 186.34956427 -253.90673828 164.26074219 C-253.55530762 163.45620605 -253.20387695 162.65166992 -252.84179688 161.82275391 C-244.61066388 143.14839489 -234.22322092 125.52817507 -221.90673828 109.26074219 C-221.10060506 108.17881795 -220.29461655 107.09678587 -219.48876953 106.01464844 C-208.61554385 91.53942278 -196.81025087 77.91320988 -182.90673828 66.26074219 C-182.0970459 65.57238281 -182.0970459 65.57238281 -181.27099609 64.87011719 C-171.94380263 56.96520844 -162.34564849 49.92515029 -151.93554688 43.51318359 C-150.02595964 42.33434093 -148.13157224 41.13424905 -146.23876953 39.92871094 C-113.55938251 19.38750945 -75.03834936 7.15832884 -36.90673828 2.26074219 C-36.2376947 2.17427429 -35.56865112 2.0878064 -34.8793335 1.99871826 C-23.23288892 0.53060306 -11.73540151 -0.05751563 0 0 Z " fill="#FDFDD4" transform="translate(2177.90673828125,1653.7392578125)"/>
<path d="M0 0 C0.69983002 -0.00200409 1.39966003 -0.00400818 2.12069702 -0.006073 C30.35713296 -0.02524552 58.67434421 2.08552648 86.8125 4.25 C86.8125 41.87 86.8125 79.49 86.8125 118.25 C68.8125 117.25 68.8125 117.25 59.9375 116.6875 C24.55297385 113.93575812 24.55297385 113.93575812 -8.1875 125.25 C-8.82558594 125.66765625 -9.46367188 126.0853125 -10.12109375 126.515625 C-21.00299595 134.6595002 -24.07808037 149.5934822 -26.1875 162.25 C-26.5175 178.75 -26.8475 195.25 -27.1875 212.25 C7.4625 212.25 42.1125 212.25 77.8125 212.25 C77.8125 245.91 77.8125 279.57 77.8125 314.25 C43.1625 314.25 8.5125 314.25 -27.1875 314.25 C-27.1875 464.4 -27.1875 614.55 -27.1875 769.25 C-77.6775 769.25 -128.1675 769.25 -180.1875 769.25 C-180.1875 619.43 -180.1875 469.61 -180.1875 315.25 C-210.2175 315.25 -240.2475 315.25 -271.1875 315.25 C-271.1875 281.26 -271.1875 247.27 -271.1875 212.25 C-241.1575 212.25 -211.1275 212.25 -180.1875 212.25 C-180.26628632 193.50860731 -180.26628632 193.50860731 -180.36767578 174.76733398 C-180.37352719 172.38525575 -180.3786212 170.00317548 -180.3828125 167.62109375 C-180.39304443 166.42391724 -180.40327637 165.22674072 -180.41381836 163.99328613 C-180.41558911 155.23072778 -179.50552632 146.89509785 -178.1875 138.25 C-177.97158382 136.68391929 -177.75732906 135.11760532 -177.546875 133.55078125 C-171.82634151 94.743023 -152.27102473 59.28595324 -120.67578125 35.5703125 C-92.26995072 14.96079668 -60.39647179 5.0249665 -25.73803711 1.51611328 C-24.1560402 1.35105378 -22.57550637 1.17014804 -20.99829102 0.96435547 C-14.0146605 0.06329385 -7.03332668 0.00989187 0 0 Z " fill="#FDFDD4" transform="translate(1380.1875,1456.75)"/>
<path d="M0 0 C2.0966154 0.00545173 4.19321946 0.00781128 6.2898407 0.00987244 C38.13390889 0.05858363 69.29226706 2.14095937 100.74723816 7.31785583 C101.86114929 7.49542419 102.97506042 7.67299255 104.12272644 7.85594177 C195.86221365 22.59626895 284.13226506 60.757178 382.01481628 133.88963318 C384.49034693 135.93048074 386.99722031 137.93212719 389.49723816 139.94285583 C394.41425611 143.96519834 399.08109606 148.21624655 403.72770691 152.54441833 C405.97553434 154.62965152 408.26878981 156.65444739 410.58317566 158.66551208 C420.46519826 167.27934764 430.1861223 176.18483754 438.77848816 186.09910583 C440.84356731 188.42641725 443.01711904 190.58633587 445.24723816 192.75535583 C449.22997267 196.69002286 452.73971064 200.87149509 456.23551941 205.23973083 C459.13879342 208.79770894 462.15602177 212.2418855 465.18473816 215.69285583 C470.49459583 221.77982176 475.5455032 227.99888888 480.373703 234.47605896 C481.34963892 235.78470819 482.3295507 237.09039653 483.31217957 238.39402771 C539.50892018 312.97318624 577.66465755 399.64777173 601.74723816 539.31785583 C601.92512878 541.04262146 601.92512878 541.04262146 602.10661316 542.80223083 C603.99932279 562.36023031 603.95221673 581.99544285 603.99221802 601.62590027 C603.99715426 603.71976519 604.00506676 605.81360191 604.01347351 607.90745544 C604.09494102 631.59719055 602.76894227 654.91659292 599.49723816 678.38035583 C599.3918573 679.14936218 599.28647644 679.91836853 599.17790222 680.7106781 C587.42444241 766.08020706 557.44429519 847.30378443 511.74723816 920.31785583 C511.28478699 921.06341736 510.82233582 921.80897888 510.34587097 922.57713318 C491.64234875 952.71401215 469.39171363 980.6629308 445.2865448 1006.63499451 C444.1087282 1007.92265348 442.94355454 1009.22188747 441.78410339 1010.52610779 C436.11767799 1016.89653034 430.22587717 1022.99046362 424.18473816 1029.00535583 C423.29077332 1029.90318787 422.39680847 1030.8010199 421.47575378 1031.72605896 C416.39509864 1036.79928081 411.22010376 1041.67157915 405.74723816 1046.31785583 C404.61804169 1047.29147768 403.48912536 1048.26542454 402.36051941 1049.23973083 C399.41812786 1051.76423409 396.46889813 1054.28072021 393.52018738 1056.7978363 C391.89209405 1058.19366515 390.27334997 1059.59942064 388.65739441 1061.00926208 C379.87281359 1068.62616415 370.61455524 1075.57472653 361.2565155 1082.46873474 C359.65014826 1083.65248892 358.04608075 1084.83937419 356.44499207 1086.03025818 C344.26608208 1095.08706086 331.67088206 1103.36345358 318.74723816 1111.31785583 C317.86052429 1111.86441833 316.97381042 1112.41098083 316.06022644 1112.97410583 C301.01700541 1122.18887477 285.50962907 1130.40677253 269.74723816 1138.31785583 C268.70696472 1138.84266541 267.66669128 1139.36747498 266.59489441 1139.90818787 C231.90708114 1157.31285341 195.17723177 1170.20341241 157.74723816 1180.31785583 C157.01126404 1180.5187532 156.27528992 1180.71965057 155.51701355 1180.92663574 C143.60924552 1184.17272662 131.66539946 1186.97764098 119.55973816 1189.38035583 C118.69973206 1189.55183136 117.83972595 1189.72330688 116.95365906 1189.89997864 C100.952852 1193.06826784 84.99319196 1195.47666791 68.75608826 1197.11210632 C66.71350589 1197.32131075 64.67252631 1197.54260006 62.6315155 1197.7665863 C12.54128362 1203.207347 -38.53360419 1201.26038425 -88.25276184 1193.31785583 C-90.31514028 1193.00585334 -92.37763842 1192.69464093 -94.44026184 1192.38426208 C-108.20791407 1190.25743401 -121.73299313 1187.32387825 -135.26789856 1184.03953552 C-137.94856865 1183.39140361 -140.63268102 1182.76163508 -143.31916809 1182.13816833 C-204.83377764 1167.61938745 -265.43836304 1141.03929835 -318.25276184 1106.31785583 C-319.18684875 1105.70829041 -320.12093567 1105.09872498 -321.08332825 1104.47068787 C-340.35028234 1091.87993553 -358.80435023 1078.62835409 -376.43537903 1063.83103943 C-378.88692021 1061.78984487 -381.38429448 1059.80748097 -383.87776184 1057.81785583 C-389.7417213 1053.03386456 -395.20652146 1047.83877841 -400.70588684 1042.64598083 C-403.44486393 1040.06252926 -406.232678 1037.54880858 -409.06526184 1035.06785583 C-414.02517918 1030.63399033 -418.72951409 1025.95042801 -423.44026184 1021.25535583 C-424.5816864 1020.1208197 -424.5816864 1020.1208197 -425.74617004 1018.96336365 C-429.87112101 1014.82715831 -433.8262095 1010.6042758 -437.63777161 1006.17796326 C-440.0621736 1003.38559458 -442.59846133 1000.70231187 -445.12776184 998.00535583 C-450.42579148 992.30321124 -455.39750211 986.40322332 -460.25276184 980.31785583 C-461.17367369 979.18816375 -462.09560295 978.05930052 -463.01838684 976.93113708 C-515.30441685 912.72919975 -555.07722962 835.90000952 -575.6653595 755.59715271 C-576.31735374 753.06721995 -576.99478894 750.54461643 -577.67073059 748.02098083 C-583.75971487 724.91244666 -587.86007451 701.48695895 -591.00276184 677.81785583 C-591.15420151 676.69005707 -591.15420151 676.69005707 -591.30870056 675.53947449 C-592.02643653 670.13946447 -592.66331953 664.73330716 -593.25276184 659.31785583 C-593.34738708 658.46877655 -593.44201233 657.61969727 -593.539505 656.74488831 C-595.41997076 639.31994195 -595.56504452 621.93860962 -595.51350403 604.43626404 C-595.50210027 600.53495517 -595.50889883 596.63391891 -595.52038002 592.73261929 C-595.56348236 575.49801833 -595.20044641 558.46356107 -593.25276184 541.31785583 C-593.0938234 539.82908324 -592.93558872 538.3402353 -592.77815247 536.8513031 C-592.34655619 532.85652627 -591.86895197 528.86828056 -591.37776184 524.88035583 C-591.29316711 524.18883423 -591.20857239 523.49731262 -591.12141418 522.78483582 C-588.17372344 498.80203564 -584.19970242 475.03975807 -577.51838684 451.79832458 C-576.68653267 448.89500274 -575.90379948 445.98691349 -575.17463684 443.05613708 C-553.48779877 356.04585502 -508.03573632 276.05678437 -450.19026184 208.13035583 C-449.76865784 207.63318054 -449.34705383 207.13600525 -448.91267395 206.62376404 C-439.16254962 195.27596815 -428.70475675 184.60744941 -418.11506653 174.04978943 C-415.987914 171.92804575 -413.86622623 169.80094092 -411.74494934 167.67332458 C-410.36766601 166.29670143 -408.99007286 164.92038818 -407.61213684 163.54441833 C-406.99111084 162.9213681 -406.37008484 162.29831787 -405.73023987 161.65638733 C-401.39836987 157.347225 -396.88245985 153.3032924 -392.25276184 149.31785583 C-391.06149125 148.27230834 -389.87121153 147.22562944 -388.68244934 146.17723083 C-380.41856709 138.93267194 -371.98498508 131.98945419 -363.25276184 125.31785583 C-362.33938049 124.6169281 -362.33938049 124.6169281 -361.407547 123.90184021 C-311.4992931 85.69184318 -256.26815862 55.77167193 -197.25276184 34.31785583 C-196.24044495 33.94604187 -195.22812805 33.57422791 -194.18513489 33.19114685 C-187.96974529 30.91319794 -181.73764842 28.84092503 -175.39143372 26.95555115 C-173.82127736 26.48737211 -172.25245284 26.01472037 -170.68440247 25.53953552 C-157.84825885 21.65315986 -145.01504745 18.1953055 -131.90510559 15.36082458 C-129.175041 14.76774723 -126.54400853 14.11069434 -123.85823059 13.32566833 C-107.92937833 8.87318309 -91.11768773 6.89067505 -74.75276184 4.63035583 C-74.03030273 4.52798615 -73.30784363 4.42561646 -72.56349182 4.32014465 C-48.45832974 0.92901914 -24.3233723 -0.06589919 0 0 Z M-129.27351379 52.85948181 C-131.0348233 53.26738345 -132.79705043 53.67131823 -134.55940247 54.07469177 C-174.416053 63.3333675 -212.79410276 78.98453696 -249.25276184 97.31785583 C-250.85861145 98.11594666 -250.85861145 98.11594666 -252.49690247 98.93016052 C-275.13802523 110.20855966 -297.05419777 122.99417531 -317.44270325 137.99754333 C-319.22166612 139.29517366 -321.01894468 140.5611292 -322.82698059 141.81785583 C-331.3831024 147.78096103 -339.45806936 154.24581171 -347.50032043 160.8813324 C-349.74822113 162.72399716 -352.03017181 164.52161591 -354.31526184 166.31785583 C-374.19129606 182.21868321 -394.02073424 199.8175197 -410.49104309 219.27488708 C-412.34328858 221.42283473 -414.26069064 223.50352177 -416.19075012 225.58152771 C-421.80196481 231.62936088 -427.13489413 237.84385794 -432.25276184 244.31785583 C-432.7617804 244.95964783 -433.27079895 245.60143982 -433.79524231 246.26268005 C-455.73370649 273.99161769 -475.30300277 303.0919969 -492.11897278 334.22215271 C-493.22959124 336.27502714 -494.3538232 338.31998779 -495.47932434 340.36473083 C-515.62395156 377.28987258 -531.24563786 418.09332506 -540.70906067 459.08738708 C-541.31721829 461.58228066 -542.00438118 464.04853552 -542.69807434 466.52098083 C-548.2471628 486.67853779 -551.71770742 507.5885577 -554.25276184 528.31785583 C-554.3425531 529.03554138 -554.43234436 529.75322693 -554.52485657 530.49266052 C-559.98278215 574.3440265 -560.86551834 619.42623191 -555.25276184 663.31785583 C-555.11840729 664.37535034 -555.11840729 664.37535034 -554.9813385 665.45420837 C-550.68932035 698.90788257 -544.90153001 732.51160094 -534.17024231 764.55369568 C-533.10391524 767.76629683 -532.07148843 770.98910101 -531.03791809 774.21238708 C-508.8564881 842.81341115 -473.78863937 906.22980966 -427.25276184 961.31785583 C-426.48367493 962.23558777 -426.48367493 962.23558777 -425.6990509 963.17185974 C-413.77705733 977.39370438 -400.97628018 990.68413257 -387.87776184 1003.81785583 C-387.31377686 1004.38451965 -386.74979187 1004.95118347 -386.16871643 1005.53501892 C-380.04436494 1011.68142208 -373.88205152 1017.71075263 -367.25276184 1023.31785583 C-366.16923108 1024.26666697 -365.08715184 1025.21713878 -364.00666809 1026.16941833 C-355.76851159 1033.35521347 -347.24491012 1040.08830443 -338.49446106 1046.63816833 C-336.24245953 1048.32557527 -333.99966847 1050.02476025 -331.75666809 1051.72410583 C-287.12315779 1085.3107986 -237.4722005 1110.8849503 -185.25276184 1130.31785583 C-184.19846985 1130.71263123 -183.14417786 1131.10740662 -182.05793762 1131.5141449 C-169.33182577 1136.2474599 -156.39583374 1139.93118632 -143.25276184 1143.31785583 C-142.55795715 1143.49913025 -141.86315247 1143.68040466 -141.14729309 1143.86717224 C-137.29527611 1144.87022027 -133.43414022 1145.83003351 -129.563797 1146.75975037 C-127.88775873 1147.1645067 -126.21312631 1147.57509875 -124.53938293 1147.98924255 C-64.17483757 1162.88387325 -0.09983333 1166.50424407 61.74723816 1160.31785583 C63.03855652 1160.18894958 64.32987488 1160.06004333 65.6603241 1159.92723083 C83.88821934 1158.05352355 101.77093104 1155.00460743 119.66081238 1151.00535583 C122.36450918 1150.40310855 125.07117255 1149.82252462 127.78239441 1149.25535583 C171.13724699 1140.11019162 213.34254113 1124.45273392 252.94548035 1104.71141052 C255.64520261 1103.36860687 258.3544792 1102.04750014 261.06755066 1100.73191833 C314.9570916 1074.44345854 363.28937879 1036.77217836 405.62223816 994.56785583 C406.12069244 994.07208038 406.61914673 993.57630493 407.13270569 993.06550598 C412.89240742 987.32929629 418.46514297 981.49910727 423.74723816 975.31785583 C425.20169333 973.71017211 426.65944711 972.10545869 428.12223816 970.50535583 C432.85242169 965.25581093 437.33181344 959.83349365 441.74723816 954.31785583 C442.16199402 953.80271423 442.57674988 953.28757263 443.0040741 952.75682068 C465.68788523 924.53433632 485.12597117 894.14567865 502.18205261 862.23704529 C503.32764962 860.1004202 504.48395561 857.96952747 505.64640808 855.84202576 C510.37653609 847.14999534 514.62335507 838.33270364 518.55973816 829.25535583 C518.85549744 828.57786285 519.15125671 827.90036987 519.45597839 827.2023468 C525.35849259 813.64803858 530.57160793 799.88528864 535.46818542 785.93772888 C536.36106489 783.41077262 537.26838468 780.89354922 538.19621277 778.37962341 C542.22594186 767.37304871 545.38495707 756.22599034 548.30973816 744.88035583 C548.54846649 743.9616571 548.78719482 743.04295837 549.03315735 742.09642029 C552.87934999 727.26030183 556.25617093 712.4480468 558.74723816 697.31785583 C558.92303406 696.28982849 559.09882996 695.26180115 559.279953 694.20262146 C561.44633816 681.47388774 563.12811725 668.72581906 564.43473816 655.88035583 C564.55413757 654.70956482 564.67353699 653.5387738 564.79655457 652.33250427 C566.47485456 634.86944065 566.98501044 617.4165219 566.99723816 599.88035583 C566.99824524 598.86238922 566.99925232 597.84442261 567.00028992 596.79560852 C566.98751276 577.49777815 565.86772209 558.49014462 563.74723816 539.31785583 C563.59569953 537.91113601 563.44433254 536.50439769 563.2931366 535.09764099 C552.8002805 438.60255127 515.95047508 345.17233226 426.71208191 228.46238708 C424.91785385 226.50407455 423.1702858 224.51559447 421.43473816 222.50535583 C413.5836083 213.52752624 405.41452577 204.89052744 396.99723816 196.44285583 C396.30066101 195.7416864 395.60408386 195.04051697 394.88639832 194.31809998 C390.3361669 189.78134355 385.62762119 185.49563526 380.74723816 181.31785583 C379.6650156 180.3792743 378.58297384 179.44048422 377.50114441 178.50144958 C349.77153024 154.59021235 320.59336463 132.51564239 288.74723816 114.31785583 C288.15604187 113.97560974 287.56484558 113.63336365 286.95573425 113.28074646 C282.25505393 110.56066899 277.51451353 107.91930077 272.74723816 105.31785583 C271.93883484 104.87602966 271.13043152 104.43420349 270.29753113 103.97898865 C245.00094486 90.24860358 218.89122169 78.8634767 191.74723816 69.31785583 C189.44758462 68.49412373 187.14810666 67.6699013 184.84880066 66.84519958 C174.5673614 63.18892465 164.35754439 59.65357607 153.70036316 57.26707458 C150.1323383 56.45962864 146.64367059 55.42189559 143.13395691 54.39207458 C136.24526362 52.40899348 129.34069134 50.82915858 122.30973816 49.44285583 C120.41771667 49.06822205 120.41771667 49.06822205 118.48747253 48.6860199 C107.61416589 46.56901363 96.6913318 44.77598704 85.74723816 43.06785583 C84.96027557 42.94315918 84.17331299 42.81846252 83.36250305 42.68998718 C77.83385713 41.81955611 72.2984184 41.03067236 66.74723816 40.31785583 C65.57310867 40.16578171 65.57310867 40.16578171 64.3752594 40.01063538 C47.1548665 37.88179052 29.86075566 37.97612822 12.53947449 38.00218201 C9.24278502 38.0067817 5.94646732 37.99999571 2.64982605 37.98167419 C-42.18318766 37.73497622 -85.57947484 42.7402566 -129.27351379 52.85948181 Z " fill="#34CEB8" transform="translate(1581.2527618408203,85.68214416503906)"/>
<path d="M0 0 C50.49 0 100.98 0 153 0 C153 253.77 153 507.54 153 769 C102.51 769 52.02 769 0 769 C0 515.23 0 261.46 0 0 Z " fill="#FDFDD4" transform="translate(893,1457)"/>
<path d="M0 0 C1.18078125 -0.020625 2.3615625 -0.04125 3.578125 -0.0625 C11.50315177 -0.09741201 18.42121039 0.98214444 26 3.25 C28.31 3.91 30.62 4.57 33 5.25 C33 52.11 33 98.97 33 147.25 C25.9723283 146.66436069 19.13676842 146.03155707 12.17578125 145.09423828 C-30.51569308 139.51676053 -80.3695649 142.31321088 -116 169.25 C-118.97188169 171.71809459 -121.80631833 174.31737086 -124.59765625 176.98828125 C-127 179.25 -127 179.25 -129.51171875 181.1796875 C-157.32639357 204.3221956 -167.81745154 250.04118473 -171 284.25 C-172.15219511 299.18119177 -172.17081404 314.1107471 -172.20532227 329.07861328 C-172.21492044 331.74133539 -172.22489068 334.40405373 -172.23532104 337.06677246 C-172.25690454 342.76318796 -172.27511356 348.45960586 -172.29092598 354.15604019 C-172.31379217 362.39178152 -172.34191015 370.6274986 -172.37124526 378.86321913 C-172.41871806 392.23025378 -172.46203618 405.59729845 -172.50268555 418.96435547 C-172.54214459 431.93701963 -172.58360585 444.9096749 -172.62768555 457.88232422 C-172.63043505 458.69222608 -172.63318456 459.50212795 -172.63601738 460.33657229 C-172.65754084 466.67202503 -172.67917915 473.00747738 -172.70085371 479.3429296 C-172.80677411 510.31193501 -172.90269122 541.28096402 -173 572.25 C-223.49 572.25 -273.98 572.25 -326 572.25 C-326 388.44 -326 204.63 -326 15.25 C-277.82 15.25 -229.64 15.25 -180 15.25 C-180 49.24 -180 83.23 -180 118.25 C-179.34 118.25 -178.68 118.25 -178 118.25 C-177.76539063 117.44820312 -177.53078125 116.64640625 -177.2890625 115.8203125 C-175.68165048 111.36826831 -173.59077446 107.30083466 -171.375 103.125 C-170.92697021 102.28042236 -170.47894043 101.43584473 -170.01733398 100.56567383 C-159.5686079 81.12691809 -145.20435136 62.2448001 -128 48.25 C-127.49549316 47.82783203 -126.99098633 47.40566406 -126.47119141 46.97070312 C-90.19477155 16.61717649 -47.30832923 0.20658659 0 0 Z " fill="#FDFDD4" transform="translate(1851,1653.75)"/>
<path d="M0 0 C3.04355549 2.68481666 5.95159451 5.48481038 8.84375 8.33203125 C9.61203125 9.07582031 10.3803125 9.81960938 11.171875 10.5859375 C35.80539838 36.06125395 47.54461782 74.86662913 50.84375 109.33203125 C51.02769201 110.88162394 51.21266274 112.43109472 51.3984375 113.98046875 C56.43275552 159.14488639 53.54792064 207.72736972 36.84375 250.33203125 C36.58126465 251.00685547 36.3187793 251.68167969 36.04833984 252.37695312 C24.11136929 282.50800478 3.86422244 307.01513837 -26.03076172 320.42089844 C-56.96032697 333.67947155 -93.53358181 334.56852628 -124.93457031 322.26367188 C-135.68551069 317.75536545 -145.45450745 312.13047872 -154.15625 304.33203125 C-154.98382812 303.62304688 -155.81140625 302.9140625 -156.6640625 302.18359375 C-180.68189271 281.25062247 -194.45954646 253.18474444 -204.15625 223.33203125 C-204.39069824 222.61063965 -204.62514648 221.88924805 -204.86669922 221.14599609 C-212.11287202 198.17710712 -213.38783676 174.03535406 -213.40625 150.14453125 C-213.40758942 149.12035095 -213.40892883 148.09617065 -213.41030884 147.04095459 C-213.40592324 131.58217656 -212.78891637 116.59522792 -210.15625 101.33203125 C-209.93601847 99.89736206 -209.71718052 98.46247797 -209.5 97.02734375 C-203.22280002 59.28941532 -186.00678565 17.89140059 -154.0390625 -5.11328125 C-142.09471242 -13.23086244 -129.24177673 -19.46671268 -115.15625 -22.66796875 C-114.01800781 -23.00441406 -112.87976562 -23.34085938 -111.70703125 -23.6875 C-74.95266005 -33.83639678 -29.02400986 -24.90209757 0 0 Z " fill="#111111" transform="translate(2885.15625,1795.66796875)"/>
<path d="M0 0 C3.71720111 1.7388144 6.06014015 3.84120643 8.94873047 6.78515625 C9.42735535 7.26991425 9.90598022 7.75467224 10.39910889 8.25411987 C11.43469346 9.30397664 12.46802061 10.35606392 13.4993248 11.41012573 C15.13407956 13.07975239 16.77590501 14.7421137 18.41995239 16.40258789 C23.09212056 21.12358185 27.7529957 25.8556063 32.40478516 30.59667969 C35.25376599 33.4993305 38.11249772 36.39207927 40.97739029 39.27902222 C42.06481579 40.37883567 43.14843523 41.48242623 44.22808456 42.58987427 C45.74044777 44.14082624 47.26488149 45.67891659 48.79248047 47.21484375 C49.65533661 48.09261475 50.51819275 48.97038574 51.40719604 49.87475586 C55.28600418 53.05409931 59.39495114 54.28243404 64.375 54.375 C65.40753906 54.41753906 65.40753906 54.41753906 66.4609375 54.4609375 C76.09173662 52.71257704 82.18616248 45.33524774 88.71875 38.671875 C89.82744826 37.5557046 90.93704174 36.44042279 92.04748535 35.32598877 C94.94976991 32.40852461 97.83983305 29.47924644 100.72741699 26.54724121 C103.68331054 23.55022856 106.65074128 20.56468645 109.6171875 17.578125 C115.42273566 11.7298416 121.21540811 5.86901194 127 0 C130.84083188 1.58806018 133.30628 4.03392881 136.2434082 6.93701172 C136.75278427 7.43806427 137.26216034 7.93911682 137.78697205 8.45535278 C139.46370035 10.10804525 141.1327257 11.76824482 142.80078125 13.4296875 C143.96323664 14.58317611 145.12576927 15.73658688 146.28837585 16.8899231 C148.72047509 19.30555039 151.14816172 21.72552132 153.57348633 24.14794922 C156.68687375 27.25593553 159.81611839 30.34742068 162.94950581 33.43522453 C165.35391478 35.8099534 167.74705364 38.19579504 170.13716698 40.58490372 C171.28658226 41.73010355 172.44013326 42.87116759 173.59780312 44.00802231 C175.21174307 45.59521868 176.80924791 47.19732622 178.40356445 48.80419922 C179.31749466 49.71305878 180.23142487 50.62191833 181.17304993 51.55831909 C183 54 183 54 182.86398983 55.88025188 C181.72624758 58.67163543 180.13945706 60.22916113 178.00311279 62.35765076 C177.14230606 63.22258148 176.28149933 64.08751221 175.39460754 64.97865295 C174.43345698 65.92918608 173.47216371 66.87957492 172.51074219 67.82983398 C171.50329751 68.83643235 170.49651315 69.84369196 169.49034119 70.8515625 C166.75509404 73.58767146 164.01068393 76.31442066 161.26456738 79.03961444 C158.39076288 81.89465879 155.52545746 84.75820678 152.65924072 87.62086487 C147.224242 93.04653191 141.78164399 98.46450927 136.33628297 103.87977415 C130.1582573 110.02438086 123.98864189 116.17740185 117.81977224 122.33119857 C107.26890668 132.85599622 96.71182122 143.37452041 86.14750671 153.88581848 C85.27542068 154.75356903 84.40333466 155.62131958 83.50482178 156.5153656 C82.75117214 157.26511878 81.99752251 158.01487196 81.221035 158.78734493 C78.81086567 161.18842073 76.40504803 163.59379441 74 166 C72.99325579 167.0067986 71.98648263 168.01356825 70.97968578 169.02031422 C70.43328762 169.56671238 69.88688946 170.11311054 69.32393378 170.67606622 C19.54928919 220.45071081 -30.22535541 270.22535541 -80 320 C-83 319 -83 319 -84.08398438 317.3112793 C-84.58381836 316.20393433 -84.58381836 316.20393433 -85.09375 315.07421875 C-85.47845459 314.23012451 -85.86315918 313.38603027 -86.25952148 312.51635742 C-86.66887939 311.58283447 -87.0782373 310.64931152 -87.5 309.6875 C-87.93578369 308.70692627 -88.37156738 307.72635254 -88.82055664 306.71606445 C-112.0760561 253.74819578 -127.95897425 197.76816402 -133 140 C-133.10974907 138.90221946 -133.21949814 137.80443892 -133.33257294 136.6733923 C-132.91677589 132.08075867 -131.13175936 130.16464483 -127.95080566 127.10902405 C-127.4076932 126.55993061 -126.86458074 126.01083717 -126.30501032 125.44510454 C-124.48323212 123.61180782 -122.63758862 121.80463209 -120.79101562 119.99633789 C-119.4791841 118.68648111 -118.16889251 117.37508053 -116.86003113 116.06225586 C-113.3033359 112.50355111 -109.7254617 108.9668503 -106.14343071 105.43367314 C-102.40332486 101.73730781 -98.68301536 98.02112749 -94.96057129 94.30699158 C-87.90902121 87.27720365 -80.83981661 80.26545038 -73.76411486 73.25998157 C-65.70938121 65.28347267 -57.67450055 57.28709269 -49.64123631 49.28897107 C-33.11617286 32.83708792 -16.5663005 16.41035118 0 0 Z " fill="#34CFB9" transform="translate(1195,594)"/>
<path d="M0 0 C3.76666446 1.56249039 6.12064856 3.89681637 8.96459961 6.78515625 C9.44483078 7.26991425 9.92506195 7.75467224 10.41984558 8.25411987 C11.45873511 9.30394137 12.49533763 10.35602996 13.52989006 11.41012573 C15.16893269 13.07939487 16.81461841 14.74184367 18.46229553 16.40258789 C23.14451611 21.12450991 27.81392124 25.85903301 32.48022461 30.59667969 C35.33790231 33.49711337 38.20288677 36.39016831 41.07226753 39.27902222 C42.16240875 40.37971694 43.2496258 41.48331593 44.33381462 42.58987427 C45.85109362 44.13841132 47.37742987 45.67746861 48.90600586 47.21484375 C50.20362099 48.53150024 50.20362099 48.53150024 51.52745056 49.87475586 C55.3794666 53.18570058 58.84927528 54.28841506 63.875 54.3125 C65.07769531 54.33763672 65.07769531 54.33763672 66.3046875 54.36328125 C72.79216191 53.48888253 76.95576962 50.54342469 81.47631836 45.9777832 C81.97477264 45.47991302 82.47322693 44.98204285 82.98678589 44.46908569 C84.61414906 42.83896005 86.2269199 41.19518418 87.83984375 39.55078125 C88.97239317 38.41076292 90.10583536 37.27163087 91.24012756 36.13334656 C94.20981527 33.14845388 97.16728867 30.15174289 100.12231445 27.15234375 C103.14517171 24.0884228 106.17951556 21.03592389 109.21289062 17.98242188 C115.15317952 11.99935283 121.08060375 6.0037398 127 0 C130.86021217 1.58448155 133.50457696 4.19451252 136.4163208 7.08833313 C136.95060031 7.61173143 137.48487981 8.13512973 138.03534961 8.67438859 C139.82426099 10.42956685 141.6059862 12.19185887 143.38769531 13.9543457 C144.66872542 15.2146572 145.9500958 16.47462291 147.23178101 17.73426819 C151.43866291 21.87326599 155.63439514 26.02346314 159.828125 30.17578125 C160.54212935 30.88254242 161.25613371 31.58930358 161.99177456 32.31748176 C168.72690611 38.98542167 175.45751911 45.65789499 182.17821121 52.34039021 C190.76913743 60.88183261 199.3809762 69.40091499 208.02270055 77.89096767 C214.10067545 83.86585957 220.15350382 89.86550657 226.18839717 95.88390607 C229.79196752 99.47627128 233.4056591 103.05684772 237.04679108 106.61116982 C240.47366541 109.95736961 243.86826333 113.33325236 247.24098587 116.73399925 C248.48097875 117.97361024 249.73208016 119.20222763 250.99502945 120.41844177 C260.49286254 129.58326448 260.49286254 129.58326448 261.7385025 135.51929283 C261.76590559 138.78815987 261.50356404 141.77485809 261 145 C260.85394707 146.89643965 260.71582522 148.79352757 260.58984375 150.69140625 C254.4581236 209.3807277 236.63255644 266.98522456 211 320 C207.43221633 318.48234781 205.14509229 316.39379696 202.41605759 313.66215324 C201.03513683 312.28720564 201.03513683 312.28720564 199.62631869 310.88448131 C198.60827255 309.86072911 197.59031923 308.83688459 196.57244873 307.81295776 C195.48872565 306.73010661 194.40456327 305.64769496 193.31999898 304.56568635 C190.3373112 301.58747865 187.36090896 298.60305704 184.38547421 295.61760545 C181.17712931 292.40063791 177.96302143 289.1894375 174.74960327 285.97753906 C169.18170921 280.41069461 163.6174939 274.84019482 158.05574799 269.2672081 C150.01435468 261.20957296 141.96745604 253.15745449 133.91919532 245.10667945 C120.8621376 232.04524256 107.80955409 218.97934392 94.75976562 205.91064453 C82.08176799 193.21429384 69.40167518 180.52004172 56.71875 167.82861328 C55.93720805 167.04654589 55.15566611 166.26447849 54.35044107 165.45871209 C50.42973133 161.53539231 46.50898028 157.61211383 42.58820868 153.68885589 C10.05239663 121.13230443 -22.47616252 88.5685137 -55 56 C-54.05476468 54.88879249 -53.10831309 53.77861953 -52.16135979 52.66887569 C-51.3709759 51.74136577 -51.3709759 51.74136577 -50.56462467 50.79511827 C-48.41542726 48.32931059 -46.13635366 46.01682943 -43.82080078 43.70727539 C-43.34199966 43.22832825 -42.86319855 42.7493811 -42.36988831 42.25592041 C-40.81405925 40.70077834 -39.25473784 39.14919135 -37.6953125 37.59765625 C-36.60507635 36.50928861 -35.51506331 35.42069743 -34.42526245 34.33189392 C-31.57688206 31.48730465 -28.72550996 28.64573319 -25.87347412 25.80480957 C-22.95548 22.89710335 -20.04036696 19.98651176 -17.125 17.07617188 C-11.41946016 11.38130919 -5.71075206 5.68963588 0 0 Z " fill="#34CFB9" transform="translate(1847,594)"/>
<path d="M0 0 C4.71017137 3.93457725 9.17091231 8.02812267 13.49839783 12.37814331 C14.1128281 12.99171916 14.72725838 13.60529501 15.36030775 14.23746407 C17.40005421 16.27557522 19.43622717 18.3172179 21.47241211 20.35888672 C22.94119133 21.82794826 24.41019128 23.29678916 25.87939453 24.76542664 C29.85423569 28.73998156 33.82599186 32.7176063 37.79719234 36.6957984 C41.95272755 40.85759617 46.11110569 45.01655139 50.2691803 49.17581177 C58.13684105 57.04657729 66.00194978 64.91988787 73.86613995 72.79412091 C82.82183182 81.76100048 91.78037242 90.72503166 100.73915088 99.68882728 C119.16260061 118.12272203 137.58247831 136.56018261 156 155 C155.06207369 156.10425042 154.12269046 157.20726345 153.18271446 158.30976963 C152.65975583 158.92414562 152.13679721 159.53852161 151.59799135 160.17151505 C149.17931933 162.9390553 146.60156889 165.52995417 143.99462891 168.11889648 C143.42804565 168.68562576 142.8614624 169.25235504 142.27770996 169.83625793 C140.42969132 171.68358747 138.57817097 173.52736301 136.7265625 175.37109375 C135.43454448 176.66124403 134.14274904 177.95161724 132.85116577 179.24220276 C129.47012957 182.61944189 126.08609986 185.99366562 122.70141602 189.36724854 C119.24052041 192.81786929 115.78249457 196.27136338 112.32421875 199.72460938 C105.55226856 206.48587186 98.77714917 213.24394899 92 220 C89.02999279 218.66442086 86.96037277 217.20459971 84.67410278 214.89442444 C84.03779938 214.25653488 83.40149597 213.61864532 82.74591064 212.96142578 C82.05906189 212.26267334 81.37221313 211.5639209 80.66455078 210.84399414 C79.93233307 210.1072496 79.20011536 209.37050507 78.44570923 208.61143494 C76.8568087 207.01157834 75.27018831 205.40945474 73.68558121 203.80534554 C71.17669885 201.26631896 68.66121316 198.73401128 66.14376831 196.20347595 C58.98752896 189.00746926 51.84399877 181.79889279 44.70361328 174.5871582 C40.33517429 170.17599424 35.95944195 165.77217077 31.57934189 161.3725872 C29.91228441 159.69496436 28.24814846 158.01443312 26.58700943 156.33094978 C24.26286293 153.97559324 21.92963033 151.62959951 19.59423828 149.28540039 C18.91143799 148.58867218 18.2286377 147.89194397 17.52514648 147.17410278 C12.25898682 141.91806352 7.7141895 138.57254452 0 138.5625 C-0.99 138.54316406 -1.98 138.52382813 -3 138.50390625 C-10.05488467 139.67053431 -14.92675613 145.65005397 -19.74951172 150.52246094 C-20.50141281 151.27406998 -21.2533139 152.02567902 -22.02799988 152.80006409 C-24.50000221 155.27345431 -26.96485411 157.75384232 -29.4296875 160.234375 C-31.14703391 161.95545345 -32.86482384 163.67608945 -34.58303833 165.39630127 C-39.09521865 169.91610294 -43.60135939 174.44187944 -48.10626221 178.96893311 C-52.70782884 183.59099037 -57.31509104 188.20736258 -61.921875 192.82421875 C-70.95349474 201.87726198 -79.97893818 210.93643672 -89 220 C-93.14350188 218.09544834 -95.97444624 215.29293547 -99.14550781 212.08154297 C-99.75081329 211.47652954 -100.35611877 210.87151611 -100.97976685 210.24816895 C-102.9756645 208.25088001 -104.96438799 206.24660442 -106.953125 204.2421875 C-108.33702668 202.85455498 -109.72137112 201.4673639 -111.10614014 200.08059692 C-114.7470322 196.432074 -118.38187778 192.77758448 -122.01550293 189.12182617 C-125.72545688 185.39140211 -129.44108927 181.66664357 -133.15625 177.94140625 C-140.44307344 170.63314253 -147.72352265 163.31856384 -155 156 C-151.06542275 151.28982863 -146.97187733 146.82908769 -142.62185669 142.50160217 C-142.00828084 141.8871719 -141.39470499 141.27274162 -140.76253593 140.63969225 C-138.72442478 138.59994579 -136.6827821 136.56377283 -134.64111328 134.52758789 C-133.17205174 133.05880867 -131.70321084 131.58980872 -130.23457336 130.12060547 C-126.26001844 126.14576431 -122.2823937 122.17400814 -118.3042016 118.20280766 C-114.14240383 114.04727245 -109.98344861 109.88889431 -105.82418823 105.7308197 C-97.95342271 97.86315895 -90.08011213 89.99805022 -82.20587909 82.13386005 C-73.23899952 73.17816818 -64.27496834 64.21962758 -55.31117272 55.26084912 C-36.87727797 36.83739939 -18.43981739 18.41752169 0 0 Z " fill="#34CFB9" transform="translate(1585,494)"/>
<path d="M0 0 C0.99 0 1.98 0 3 0 C8.05836178 13.45155478 12.77454801 27.00106675 17.36129761 40.62002563 C23.29012707 58.21838298 29.28642775 75.79060165 35.4375 93.3125 C41.66011547 111.04484331 47.70988244 128.83323921 53.72924805 146.63549805 C59.17156276 162.72614969 64.68719362 178.78748483 70.31600952 194.81378174 C76.969355 213.76986539 83.40305027 232.80001638 89.82359695 251.83591747 C90.4635094 253.73278291 91.10401731 255.62944743 91.74453735 257.52610779 C92.53330867 259.86223558 93.32086971 262.19877247 94.10702515 264.53578186 C94.63569687 266.10144142 94.63569687 266.10144142 95.17504883 267.69873047 C95.48066238 268.60605927 95.78627594 269.51338806 96.10115051 270.44821167 C96.71176232 272.18170777 97.38578558 273.89388374 98.11405945 275.58132935 C99 278 99 278 99 282 C33.66 282 -31.68 282 -99 282 C-97.87504862 274.12534036 -97.87504862 274.12534036 -96.67504883 270.78295898 C-96.40489456 270.02011093 -96.1347403 269.25726288 -95.85639954 268.47129822 C-95.41121223 267.24607201 -95.41121223 267.24607201 -94.95703125 265.99609375 C-94.64126633 265.11011002 -94.3255014 264.22412628 -94.00016785 263.31129456 C-92.9436622 260.35116109 -91.87796906 257.39441777 -90.8125 254.4375 C-90.05463473 252.31861097 -89.29749149 250.19946358 -88.54101562 248.08007812 C-86.90331712 243.49363466 -85.26242227 238.90835138 -83.61962891 234.32373047 C-80.92403243 226.79492129 -78.24674847 219.25967413 -75.57421875 211.72265625 C-75.23232671 210.75850107 -75.23232671 210.75850107 -74.88352776 209.77486801 C-73.95641165 207.16018281 -73.02939591 204.54546206 -72.10254955 201.93068123 C-70.45965208 197.2958562 -68.81553297 192.66146601 -67.1706543 188.02734375 C-66.93814248 187.37227781 -66.70563066 186.71721188 -66.46607304 186.04229546 C-66.2343159 185.38935572 -66.00255877 184.73641598 -65.76377869 184.06369019 C-60.54388405 169.35742591 -55.33240627 154.64819075 -50.125 139.9375 C-44.22946662 123.2835345 -38.32043471 106.63442799 -32.39599609 89.99072266 C-28.58723396 79.28850582 -24.78861736 68.58275033 -20.99909019 57.87371063 C-19.49574206 53.62594972 -17.99134519 49.37856005 -16.48700809 45.13114929 C-15.01305602 40.96905645 -13.5408929 36.80633637 -12.07002354 32.64315319 C-11.3712233 30.66629521 -10.67147908 28.68977434 -9.97132874 26.71339417 C-9.11228244 24.28844444 -8.25470292 21.86297437 -7.39891052 19.43687439 C-5.07827856 12.89460751 -2.63896433 6.42075204 0 0 Z " fill="#121212" transform="translate(461,1647)"/>
<path d="M0 0 C0.62825684 0.27215332 1.25651367 0.54430664 1.90380859 0.82470703 C10.18898421 4.48868622 17.18448925 9.03343883 24 15 C24.67289063 15.52980469 25.34578125 16.05960938 26.0390625 16.60546875 C51.04656002 36.78084025 62.35819101 74.45962735 67 105 C67 106.32 67 107.64 67 109 C-14.84 109 -96.68 109 -181 109 C-181 98.84931507 -181 98.84931507 -180.3359375 95.37890625 C-180.11212402 94.20763184 -180.11212402 94.20763184 -179.88378906 93.01269531 C-179.71588867 92.20413086 -179.54798828 91.39556641 -179.375 90.5625 C-179.19678711 89.69850586 -179.01857422 88.83451172 -178.83496094 87.94433594 C-172.12094317 56.8281013 -155.92602318 27.30163226 -128.8125 9.375 C-126.89110648 8.22270742 -124.95197023 7.09970154 -123 6 C-122.42685059 5.67257812 -121.85370117 5.34515625 -121.26318359 5.0078125 C-110.62577307 -0.98224031 -99.93408436 -4.53975728 -88 -7 C-87.21141602 -7.16371094 -86.42283203 -7.32742188 -85.61035156 -7.49609375 C-57.5884803 -13.05225339 -26.35174781 -11.57493809 0 0 Z " fill="#121212" transform="translate(2232,1779)"/>
<path d="M0 0 C2.41328586 1.07207424 3.81687812 2.34029388 5.67471313 4.21832275 C6.37513733 4.91897354 7.07556152 5.61962433 7.79721069 6.34150696 C8.54214783 7.10192795 9.28708496 7.86234894 10.05459595 8.64581299 C10.82579773 9.42125961 11.59699951 10.19670624 12.39157104 10.99565125 C14.85407805 13.47495615 17.30595228 15.96448665 19.75772095 18.45440674 C21.42500004 20.13673114 23.09296064 21.81838041 24.7616272 23.49932861 C28.85159997 27.62238548 32.93289016 31.75388732 37.00772095 35.89190674 C35.6169157 39.02928828 33.99749891 41.14665955 31.56777954 43.55889893 C30.86720428 44.25932312 30.16662903 44.95974731 29.44482422 45.68139648 C28.68956451 46.42633362 27.93430481 47.17127075 27.15615845 47.93878174 C26.38212677 48.70998352 25.60809509 49.4811853 24.81060791 50.27575684 C22.33930171 52.73587529 19.86112912 55.18894522 17.38272095 57.64190674 C15.70518042 59.30941567 14.0280915 60.97737906 12.35147095 62.64581299 C8.24211175 66.73313044 4.12709447 70.8146837 0.00772095 74.89190674 C-5.05939205 70.64980538 -9.80451276 66.21473584 -14.4571228 61.52471924 C-15.13529556 60.84513153 -15.81346832 60.16554382 -16.51219177 59.46536255 C-18.65377047 57.31823672 -20.79182434 55.16764047 -22.92977905 53.01690674 C-24.39113494 51.55052901 -25.85272131 50.08438094 -27.31454468 48.61846924 C-30.8764584 45.04559674 -34.4352177 41.4696099 -37.99227905 37.89190674 C-36.62147805 34.82922641 -35.05418483 32.68991316 -32.70761108 30.30084229 C-32.03996735 29.61721115 -31.37232361 28.93358002 -30.68444824 28.22923279 C-29.96361053 27.50303238 -29.24277283 26.77683197 -28.50009155 26.02862549 C-27.75774261 25.27724808 -27.01539368 24.52587067 -26.25054932 23.75172424 C-24.68136149 22.16804447 -23.10936001 20.58714834 -21.53475952 19.0088501 C-19.12100377 16.58314989 -16.72652462 14.13942811 -14.3321228 11.69464111 C-12.80593069 10.1589905 -11.27862429 8.62444634 -9.75009155 7.09112549 C-8.67490768 5.98664314 -8.67490768 5.98664314 -7.57800293 4.85984802 C-6.90405487 4.19197769 -6.23010681 3.52410736 -5.53573608 2.83599854 C-4.94664459 2.2418364 -4.3575531 1.64767426 -3.75061035 1.0355072 C-1.99227905 -0.10809326 -1.99227905 -0.10809326 0 0 Z " fill="#34CDB7" transform="translate(1911.9922790527344,531.1080932617188)"/>
<path d="M0 0 C2.53939644 1.05310588 3.95062077 2.54932791 5.83883667 4.53849792 C6.81143433 5.55170105 6.81143433 5.55170105 7.80368042 6.58537292 C8.49590698 7.31240417 9.18813354 8.03943542 9.90133667 8.78849792 C11.56561652 10.457548 13.23263441 12.12386935 14.90133667 13.78849792 C22.23467 21.12183126 29.56800334 28.45516459 36.90133667 35.78849792 C35.51053142 38.92587947 33.89111463 41.04325074 31.46139526 43.45549011 C30.76082001 44.15591431 30.06024475 44.8563385 29.33843994 45.57798767 C28.58318024 46.3229248 27.82792053 47.06786194 27.04977417 47.83537292 C26.27574249 48.60657471 25.50171082 49.37777649 24.70422363 50.17234802 C22.23291744 52.63246648 19.75474484 55.08553641 17.27633667 57.53849792 C15.59879615 59.20600686 13.92170722 60.87397025 12.24508667 62.54240417 C8.13572748 66.62972162 4.0207102 70.71127488 -0.09866333 74.78849792 C-5.16577632 70.54639657 -9.91089704 66.11132703 -14.56350708 61.42131042 C-15.24167984 60.74172272 -15.9198526 60.06213501 -16.61857605 59.36195374 C-18.76015475 57.21482791 -20.89820862 55.06423166 -23.03616333 52.91349792 C-24.49751922 51.4471202 -25.95910559 49.98097212 -27.42092896 48.51506042 C-30.98284268 44.94218792 -34.54160198 41.36620109 -38.09866333 37.78849792 C-36.72786233 34.72581759 -35.16056911 32.58650435 -32.81399536 30.19743347 C-32.14635162 29.51380234 -31.47870789 28.8301712 -30.79083252 28.12582397 C-30.06999481 27.39962357 -29.3491571 26.67342316 -28.60647583 25.92521667 C-27.86412689 25.17383926 -27.12177795 24.42246185 -26.35693359 23.64831543 C-24.78774576 22.06463566 -23.21574429 20.48373953 -21.6411438 18.90544128 C-19.22738805 16.47974107 -16.8329089 14.03601929 -14.43850708 11.5912323 C-12.91231497 10.05558169 -11.38500857 8.52103752 -9.85647583 6.98771667 C-8.78129196 5.88323433 -8.78129196 5.88323433 -7.68438721 4.75643921 C-7.01043915 4.08856888 -6.33649109 3.42069855 -5.64212036 2.73258972 C-5.05302887 2.13842758 -4.46393738 1.54426544 -3.85699463 0.93209839 C-2.09866333 -0.21150208 -2.09866333 -0.21150208 0 0 Z " fill="#34CDB7" transform="translate(1260.0986633300781,531.2115020751953)"/>
<path d="M0 0 C6.71514675 3.99598522 11.26481253 9.72294388 13.21875 17.3203125 C14.37441722 26.00962168 13.42321193 33.15000055 8.21875 40.3203125 C2.91137287 46.30667178 -2.66951158 49.69019516 -10.6015625 50.66796875 C-19.07850318 51.09073178 -25.45866548 49.14539201 -31.8515625 43.48828125 C-37.57733404 37.41513026 -39.86748828 31.74176538 -40.28125 23.4453125 C-40.06095721 16.16647142 -37.81341181 10.62020113 -32.87890625 5.25 C-30.92489997 3.45726487 -28.93207619 1.86890735 -26.78125 0.3203125 C-25.894375 -0.3190625 -25.0075 -0.9584375 -24.09375 -1.6171875 C-16.10750797 -4.1788123 -7.58269106 -3.52053514 0 0 Z " fill="#33C9B4" transform="translate(1161.78125,2325.6796875)"/>
<path d="M0 0 C7.3865737 3.34827843 11.95660631 8.53860171 16.05078125 15.40625 C18.26650291 23.22644408 18.14626902 30.83864774 14.37109375 38.125 C9.86672986 45.39912802 4.91127654 49.32530412 -3.26171875 51.90625 C-4.12796875 51.98875 -4.99421875 52.07125 -5.88671875 52.15625 C-6.60472656 52.23101563 -7.32273437 52.30578125 -8.0625 52.3828125 C-15.0427496 52.79533114 -20.14835509 51.14229456 -25.88671875 47.15625 C-31.43498041 42.17115775 -35.35145921 36.73903396 -36.234375 29.1796875 C-36.58913978 21.41124854 -35.51129534 15.49693453 -30.88671875 9.15625 C-22.39992714 -0.06246203 -12.35340131 -3.61073706 0 0 Z " fill="#33C8B3" transform="translate(511.88671875,2323.84375)"/>
<path d="M0 0 C26.41624365 0 26.41624365 0 32 5 C35.45302468 8.61832906 36.23776515 12.13570708 36.4375 17.0625 C36.19354141 22.60624871 34.58166752 26.17868588 30.9375 30.375 C29 32 29 32 27 32 C30.14514902 38.00042256 33.67210348 43.54269308 37.64453125 49.03125 C39 51 39 51 39 52 C35.87555256 52.49271637 33.11101373 52.64014723 30 52 C27.32136841 49.78365908 25.70493099 47.09184972 23.9375 44.125 C23.45345703 43.37863281 22.96941406 42.63226562 22.47070312 41.86328125 C19 36.41422825 19 36.41422825 19 34 C15.37 34 11.74 34 8 34 C8 39.94 8 45.88 8 52 C5.36 52 2.72 52 0 52 C0 34.84 0 17.68 0 0 Z " fill="#33C7B2" transform="translate(1619,2323)"/>
<path d="M0 0 C25 0 25 0 31 4 C35.00555666 8.43858981 36.36330316 11.75388411 36.28515625 17.8046875 C35.65624158 22.64646891 33.3998484 26.68249563 29.875 30 C28 31 28 31 26 31 C26.36351562 31.5347998 26.72703125 32.06959961 27.1015625 32.62060547 C28.73915793 35.03553385 30.36964824 37.4551761 32 39.875 C32.57234375 40.71675781 33.1446875 41.55851562 33.734375 42.42578125 C34.27578125 43.23144531 34.8171875 44.03710938 35.375 44.8671875 C35.87773438 45.61081543 36.38046875 46.35444336 36.8984375 47.12060547 C38 49 38 49 38 51 C33.1163575 51.95928692 33.1163575 51.95928692 30 51 C26.29571207 47.18245147 23.38169268 42.70105336 20.9609375 37.96875 C20.07828759 36.12815997 20.07828759 36.12815997 18 34 C14.58110166 33.19683023 11.54509603 33.093292 8 33 C8 38.94 8 44.88 8 51 C5.36 51 2.72 51 0 51 C0 34.17 0 17.34 0 0 Z " fill="#34CDB7" transform="translate(660,2324)"/>
<path d="M0 0 C23 0 23 0 31 4 C35.16914657 9.23815851 36.54727424 13.32325422 36 20 C34.37849141 24.57887139 32.43241227 28.63604679 28 31 C27.34 31 26.68 31 26 31 C27.43560843 33.25122664 28.87340862 35.50100138 30.3125 37.75 C30.71662109 38.38421875 31.12074219 39.0184375 31.53710938 39.671875 C33.21918404 42.29755252 34.8889478 44.8558015 36.79296875 47.328125 C38 49 38 49 38 51 C34.97447707 51.38429678 32.9294422 51.62503614 30 51 C27.45995082 48.91673028 25.82603839 46.37441405 24.0625 43.625 C23.58232422 42.92632813 23.10214844 42.22765625 22.60742188 41.5078125 C20.93671304 39.05712536 19.32718371 36.65436742 18 34 C15.64400765 33.53248212 15.64400765 33.53248212 12.9375 33.375 C11.308125 33.25125 9.67875 33.1275 8 33 C8 38.94 8 44.88 8 51 C5.36 51 2.72 51 0 51 C0 34.17 0 17.34 0 0 Z " fill="#34CBB5" transform="translate(962,2324)"/>
<path d="M0 0 C7 0 7 0 9.37890625 2.2109375 C10.09949219 3.25507813 10.82007812 4.29921875 11.5625 5.375 C12.40702781 6.5598976 13.25350085 7.74341033 14.1015625 8.92578125 C14.55692383 9.57369629 15.01228516 10.22161133 15.48144531 10.88916016 C18.3465892 14.87180229 21.40816226 18.70427407 24.4375 22.5625 C25.62461414 24.08392096 26.81086296 25.60601764 27.99609375 27.12890625 C28.50325928 27.77931885 29.0104248 28.42973145 29.53295898 29.09985352 C31.04047436 31.05242335 32.51991644 33.02655525 34 35 C34.33 23.45 34.66 11.9 35 0 C37.97 0 40.94 0 44 0 C44 17.16 44 34.32 44 52 C37 52 37 52 34.5859375 49.97265625 C33.85632812 49.01230469 33.12671875 48.05195313 32.375 47.0625 C31.96749512 46.53906006 31.55999023 46.01562012 31.14013672 45.47631836 C30.23906329 44.31216637 29.34845827 43.13985919 28.46679688 41.9609375 C26.86747324 39.82282707 25.24062793 37.70758957 23.609375 35.59375 C20.88389298 32.0556382 18.17892031 28.50278283 15.48876953 24.93774414 C13.69222052 22.59940214 11.84210184 20.3026273 10 18 C9.67 29.22 9.34 40.44 9 52 C6.03 52 3.06 52 0 52 C0 34.84 0 17.68 0 0 Z " fill="#32C1AC" transform="translate(2661,2323)"/>
<path d="M0 0 C2.31 0 4.62 0 7 0 C12.03512567 9.63898509 16.39446664 19.53938044 20.71582031 29.51293945 C21.88993084 32.22194975 23.06960947 34.92848659 24.25 37.63476562 C24.99771842 39.35402641 25.74512618 41.07342234 26.4921875 42.79296875 C26.84521942 43.6032402 27.19825134 44.41351166 27.5619812 45.24833679 C30 50.88412784 30 50.88412784 30 52 C27.03 52 24.06 52 21 52 C20.32880451 50.5437455 19.66318193 49.08492133 19 47.625 C18.62875 46.81289062 18.2575 46.00078125 17.875 45.1640625 C17 43 17 43 17 41 C8.09 41 -0.82 41 -10 41 C-10.99 43.97 -11.98 46.94 -13 50 C-13.33 50.66 -13.66 51.32 -14 52 C-16.64 52 -19.28 52 -22 52 C-21.32142753 46.87293566 -19.15247847 42.43381609 -17.0703125 37.75390625 C-16.67931366 36.86517319 -16.28831482 35.97644012 -15.88546753 35.06077576 C-15.05895889 33.18458612 -14.2300565 31.30944942 -13.39892578 29.43530273 C-12.13197096 26.57822006 -10.87197338 23.71815294 -9.61328125 20.85742188 C-8.80769705 19.03107114 -8.00172034 17.20489347 -7.1953125 15.37890625 C-6.82020538 14.52873428 -6.44509827 13.67856232 -6.05862427 12.80262756 C-4.13984585 8.47897406 -2.15930936 4.2108662 0 0 Z " fill="#33C8B3" transform="translate(1723,2323)"/>
<path d="M0 0 C1.134375 0.020625 2.26875 0.04125 3.4375 0.0625 C6.08944829 5.91532431 8.74029035 11.76864873 11.39038086 17.62231445 C12.29117054 19.61168638 13.19220906 21.60094566 14.09350586 23.59008789 C15.39242676 26.45689455 16.69043853 29.32411135 17.98828125 32.19140625 C18.58845818 33.51526085 18.58845818 33.51526085 19.20075989 34.86585999 C20.28494886 37.26240887 21.36186889 39.66210131 22.4375 42.0625 C22.74867767 42.74343719 23.05985535 43.42437439 23.38046265 44.12594604 C24.65184785 46.96675906 25.4375 48.90981494 25.4375 52.0625 C22.7975 52.0625 20.1575 52.0625 17.4375 52.0625 C16.76630451 50.6062455 16.10068193 49.14742133 15.4375 47.6875 C15.06625 46.87539062 14.695 46.06328125 14.3125 45.2265625 C13.4375 43.0625 13.4375 43.0625 13.4375 41.0625 C4.5275 41.0625 -4.3825 41.0625 -13.5625 41.0625 C-14.5525 44.0325 -15.5425 47.0025 -16.5625 50.0625 C-16.8925 50.7225 -17.2225 51.3825 -17.5625 52.0625 C-20.5325 52.0625 -23.5025 52.0625 -26.5625 52.0625 C-22.81039565 41.80364077 -18.45772199 31.85799224 -13.97705078 21.90136719 C-12.79668781 19.27734853 -11.62262155 16.65057492 -10.44921875 14.0234375 C-9.70088484 12.35400345 -8.95220035 10.6847265 -8.203125 9.015625 C-7.85211731 8.23036438 -7.50110962 7.44510376 -7.13946533 6.63604736 C-4.17985209 0.07333074 -4.17985209 0.07333074 0 0 Z " fill="#34CBB5" transform="translate(1334.5625,2322.9375)"/>
<path d="M0 0 C2.64 0 5.28 0 8 0 C14.0378307 12.9464723 20.03056153 25.90914424 25.75 39 C26.17974121 39.97783447 26.60948242 40.95566895 27.05224609 41.96313477 C27.44234863 42.86217529 27.83245117 43.76121582 28.234375 44.6875 C28.57694336 45.47511719 28.91951172 46.26273438 29.27246094 47.07421875 C30 49 30 49 30 51 C27.36 51 24.72 51 22 51 C20.35 47.7 18.7 44.4 17 41 C8.42 41 -0.16 41 -9 41 C-10.65 44.3 -12.3 47.6 -14 51 C-16.64 51 -19.28 51 -22 51 C-19.53656823 42.95685175 -16.1626393 35.39353393 -12.6875 27.75 C-12.12526194 26.50408176 -11.56341098 25.25798877 -11.00195312 24.01171875 C-7.38094567 15.98642088 -3.70150796 7.98847989 0 0 Z " fill="#34CBB5" transform="translate(2123,2324)"/>
<path d="M0 0 C23 0 23 0 31 4 C34.72522673 7.72522673 35.29634603 10.83978647 35.5 15.9375 C35.30029234 21.48799563 34.43421764 24.63761543 31 29 C23.99617579 34.25286816 16.41993396 33.07796235 8 33 C8 38.94 8 44.88 8 51 C5.36 51 2.72 51 0 51 C0 34.17 0 17.34 0 0 Z " fill="#34CBB6" transform="translate(804,2324)"/>
<path d="M0 0 C2.64 0 5.28 0 8 0 C12.77576425 10.12603552 17.41532502 20.30596294 21.93676758 30.5480957 C22.95731195 32.85732944 23.98351451 35.1640008 25.00976562 37.47070312 C25.66180184 38.94516064 26.31350777 40.41976427 26.96484375 41.89453125 C27.42406471 42.92402641 27.42406471 42.92402641 27.89256287 43.97431946 C30 48.77125798 30 48.77125798 30 51 C27.36 51 24.72 51 22 51 C20.35 47.7 18.7 44.4 17 41 C8.42 41 -0.16 41 -9 41 C-10.65 44.3 -12.3 47.6 -14 51 C-16.64 51 -19.28 51 -22 51 C-20.0070941 44.60437513 -17.58367626 38.53288066 -14.8046875 32.44140625 C-14.41177521 31.57104233 -14.01886292 30.70067841 -13.61404419 29.80393982 C-12.37181445 27.05490767 -11.1234712 24.30870231 -9.875 21.5625 C-9.02955208 19.69353838 -8.18449635 17.82439931 -7.33984375 15.95507812 C-5.80165762 12.55435397 -4.26228786 9.15418063 -2.71826172 5.75610352 C-2.25551346 4.73759056 -2.25551346 4.73759056 -1.78341675 3.69850159 C-1.21016737 2.45565737 -0.61209094 1.22418188 0 0 Z " fill="#34CBB6" transform="translate(2587,2324)"/>
<path d="M0 0 C6 0 6 0 7.68408203 1.21484375 C8.12091309 1.78332031 8.55774414 2.35179688 9.0078125 2.9375 C9.51393066 3.5778418 10.02004883 4.21818359 10.54150391 4.87792969 C11.06405762 5.57821289 11.58661133 6.27849609 12.125 7 C12.67978027 7.71317383 13.23456055 8.42634766 13.80615234 9.16113281 C15.55832089 11.42561104 17.28116057 13.71014973 19 16 C20.13512594 17.49501246 21.27053711 18.98980839 22.40625 20.484375 C24.87851262 23.75226605 27.33013625 27.03459665 29.76416016 30.33105469 C31.16793169 32.22678408 32.58466569 34.11288759 34 36 C34.33 24.12 34.66 12.24 35 0 C37.64 0 40.28 0 43 0 C43 17.16 43 34.32 43 52 C36 52 36 52 33.296875 49.4296875 C32.42565834 48.26106013 31.57780701 47.07476829 30.75 45.875 C29.8053815 44.58933356 28.8600476 43.30419249 27.9140625 42.01953125 C27.43614258 41.35518066 26.95822266 40.69083008 26.46582031 40.00634766 C24.11205644 36.78462355 21.61356815 33.68044935 19.125 30.5625 C15.60460809 26.13041685 12.29533043 21.6134626 9 17 C8.67 28.55 8.34 40.1 8 52 C5.36 52 2.72 52 0 52 C0 34.84 0 17.68 0 0 Z " fill="#34CCB6" transform="translate(1221,2323)"/>
<path d="M0 0 C5.41101775 3.11941135 8.66405321 7.10544089 10.65625 13.08203125 C11.72683619 19.70882422 10.17286341 24.36489942 6.484375 29.90625 C2.98874732 34.06664448 -0.54321699 35.67452335 -5.8671875 36.44921875 C-11.53654982 36.73864566 -14.97285535 35.94468234 -19.34375 32.08203125 C-24.80281985 26.40044497 -25.76774569 21.89669077 -25.68359375 14.1640625 C-25.08694936 8.75311508 -22.79892962 5.32676691 -18.83984375 1.70703125 C-13.35898644 -2.09655166 -6.13072156 -2.40119928 0 0 Z " fill="#111313" transform="translate(1156.34375,2331.91796875)"/>
<path d="M0 0 C4.14091433 2.70992882 7.37336239 6.33417504 8.80859375 11.12109375 C9.77010653 18.22358909 9.80410215 24.65451862 5.34375 30.53125 C1.13960884 34.885157 -2.56126332 36.35629351 -8.62890625 36.68359375 C-14.23545521 36.44485334 -18.12619117 35.02370022 -22.19140625 31.12109375 C-26.5435622 25.89357498 -26.92169795 19.8625738 -26.70703125 13.25390625 C-25.69653409 7.11437046 -22.36693692 3.77864093 -17.56640625 0.12109375 C-11.87990284 -1.56379615 -5.6244461 -2.25579389 0 0 Z " fill="#111312" transform="translate(511.19140625,2331.87890625)"/>
<path d="M0 0 C2.64 0 5.28 0 8 0 C8.12422629 5.55004849 8.21463317 11.09927582 8.2746582 16.65039062 C8.29969777 18.53595083 8.33373999 20.42141498 8.37719727 22.30664062 C8.43831786 25.02758564 8.46631493 27.74724027 8.48828125 30.46875 C8.51408768 31.30241089 8.5398941 32.13607178 8.56648254 32.99499512 C8.56937904 39.13247214 6.95110099 43.27342645 3 48 C-3.21453772 52.84733942 -8.32991466 53.63041797 -16 53 C-21.90747854 51.25680961 -24.56821183 48.90255453 -28 44 C-30.39500715 39.43097529 -30.25977104 35.22846283 -30.1953125 30.19921875 C-30.1924826 29.36284378 -30.18965271 28.52646881 -30.18673706 27.66474915 C-30.1755832 25.00551774 -30.15048763 22.34662882 -30.125 19.6875 C-30.11496399 17.87956217 -30.10583923 16.07161904 -30.09765625 14.26367188 C-30.07565959 9.84231688 -30.04116294 5.42121642 -30 1 C-27.36 1 -24.72 1 -22 1 C-21.99589111 2.12494873 -21.99178223 3.24989746 -21.98754883 4.40893555 C-21.96573322 8.59331725 -21.91141903 12.77676185 -21.84741211 16.96069336 C-21.82425315 18.76952108 -21.80984131 20.57848325 -21.80444336 22.38745117 C-21.79513804 24.99222383 -21.75411645 27.59488824 -21.70703125 30.19921875 C-21.7109639 31.00461594 -21.71489655 31.81001312 -21.71894836 32.63981628 C-21.60815492 36.92878086 -21.3783113 38.53280902 -18.58081055 41.98754883 C-14.79502821 44.9396067 -12.80417945 45.37679839 -8 45 C-4.99959951 43.70437251 -3.44092502 42.82149565 -1.88525391 39.9230957 C-0.72463165 36.09073767 -0.64445883 32.3874953 -0.5859375 28.41796875 C-0.56657135 27.60378983 -0.5472052 26.7896109 -0.5272522 25.95075989 C-0.46771248 23.36311148 -0.42117417 20.77541797 -0.375 18.1875 C-0.3367966 16.42771551 -0.2977435 14.66794926 -0.2578125 12.90820312 C-0.16203218 8.60561766 -0.07790715 4.3029447 0 0 Z " fill="#34CBB6" transform="translate(605,2323)"/>
<path d="M0 0 C9.9 0 19.8 0 30 0 C30 2.64 30 5.28 30 8 C22.74 8 15.48 8 8 8 C8 12.62 8 17.24 8 22 C13.61 22 19.22 22 25 22 C25 24.64 25 27.28 25 30 C19.39 30 13.78 30 8 30 C8 34.95 8 39.9 8 45 C15.59 45 23.18 45 31 45 C31 47.31 31 49.62 31 52 C20.77 52 10.54 52 0 52 C0 34.84 0 17.68 0 0 Z " fill="#33C8B3" transform="translate(885,2323)"/>
<path d="M0 0 C10.23 0 20.46 0 31 0 C31 2.64 31 5.28 31 8 C23.41 8 15.82 8 8 8 C8 12.95 8 17.9 8 23 C13.61 23 19.22 23 25 23 C25 25.31 25 27.62 25 30 C19.39 30 13.78 30 8 30 C8 34.95 8 39.9 8 45 C15.59 45 23.18 45 31 45 C31 47.31 31 49.62 31 52 C20.77 52 10.54 52 0 52 C0 34.84 0 17.68 0 0 Z " fill="#34CCB6" transform="translate(1891,2323)"/>
<path d="M0 0 C3.50305226 2.11223003 6.53279517 4.37609164 8.54296875 8.01953125 C8.54296875 8.67953125 8.54296875 9.33953125 8.54296875 10.01953125 C4.15835337 13.01953125 4.15835337 13.01953125 1.54296875 13.01953125 C0.90359375 12.21515625 0.26421875 11.41078125 -0.39453125 10.58203125 C-2.26739057 7.78232393 -2.26739057 7.78232393 -5.45703125 7.01953125 C-10.12718434 6.62414423 -10.12718434 6.62414423 -14.45703125 8.08203125 C-15.69413061 10.16754779 -15.69413061 10.16754779 -15.70703125 13.45703125 C-14.86338452 16.99584174 -14.86338452 16.99584174 -12.7265625 18.1875 C-10.33207818 19.22581621 -7.90883677 20.12530024 -5.45703125 21.01953125 C6.15039473 26.02598381 6.15039473 26.02598381 9.54296875 32.01953125 C10.45786289 37.07205477 10.12238323 40.83924249 7.85546875 45.45703125 C3.98637142 49.74440937 0.12611561 51.67512527 -5.5703125 52.22265625 C-12.29081519 52.36589965 -17.00732398 51.08817294 -22.26953125 46.64453125 C-24.37001124 44.12395526 -25.48012952 42.12785492 -26.45703125 39.01953125 C-24.37540069 37.75568412 -22.9821691 37.00259132 -20.51953125 37.08203125 C-18.45703125 38.01953125 -18.45703125 38.01953125 -16.20703125 40.51953125 C-12.68730733 43.71928027 -10.10518707 44.06638766 -5.45703125 44.01953125 C-2.60080638 43.6688674 -2.60080638 43.6688674 -0.45703125 43.01953125 C-0.20953125 41.78203125 0.03796875 40.54453125 0.29296875 39.26953125 C0.4321875 38.5734375 0.57140625 37.87734375 0.71484375 37.16015625 C0.72185768 34.87397635 0.72185768 34.87397635 -1.01171875 32.9296875 C-3.96690652 30.6212421 -6.82187786 29.51673364 -10.33203125 28.20703125 C-17.03391119 25.55566211 -21.15835859 22.61687657 -24.45703125 16.01953125 C-25.24863269 9.347462 -25.24863269 9.347462 -23.2578125 6.0078125 C-17.23884131 -1.22404961 -9.09928279 -3.63103335 0 0 Z " fill="#33C9B3" transform="translate(2435.45703125,2323.98046875)"/>
<path d="M0 0 C3.36980813 1.90057179 5.69320219 3.93086458 7.6875 7.3125 C7.3575 8.3025 7.0275 9.2925 6.6875 10.3125 C4.125 11.5 4.125 11.5 1.6875 12.3125 C1.048125 11.508125 0.40875 10.70375 -0.25 9.875 C-4.0761284 6.67354563 -7.35672177 5.95056114 -12.3125 6.3125 C-13.3025 6.9725 -14.2925 7.6325 -15.3125 8.3125 C-16.06295506 11.72706334 -16.06295506 11.72706334 -15.3125 15.3125 C-11.78427634 18.64471123 -7.80890602 19.89690366 -3.3125 21.625 C2.90974366 24.11389746 6.68948965 27.3164793 9.6875 33.3125 C10.32776961 39.97130395 8.36876579 43.04835035 4.25 48.0625 C-0.37515511 51.76262409 -5.62640544 51.79302623 -11.30078125 51.6953125 C-17.22842639 50.94186344 -20.76553519 47.85946481 -24.875 43.75 C-26.3125 41.3125 -26.3125 41.3125 -26.375 39.125 C-24.86972986 36.55718623 -23.0856968 36.16579132 -20.3125 35.3125 C-19.94125 36.075625 -19.57 36.83875 -19.1875 37.625 C-16.86468596 40.95436679 -15.11040039 41.92480563 -11.3125 43.3125 C-7.65545541 43.69081496 -5.25167898 43.72188571 -1.875 42.25 C-0.0150587 40.26999766 -0.0150587 40.26999766 0.25 36.875 C0.04200937 33.24984758 0.04200937 33.24984758 -2.41015625 31.26953125 C-5.61047176 29.11157961 -8.70928639 27.81200174 -12.3125 26.4375 C-21.74154061 22.55330184 -21.74154061 22.55330184 -24.3125 17.3125 C-25.11896924 12.20234912 -25.16443662 7.94821831 -22.75 3.3125 C-15.9460042 -2.27026578 -8.01463762 -3.6646856 0 0 Z " fill="#33C9B4" transform="translate(2222.3125,2324.6875)"/>
<path d="M0 0 C3.5 1.75 3.5 1.75 6 4 C6.804375 4.66 7.60875 5.32 8.4375 6 C10 8 10 8 10.0625 10.125 C8.57059388 12.7577755 6.81862363 13.13273119 4 14 C3.1028125 12.7934375 3.1028125 12.7934375 2.1875 11.5625 C0.19052724 8.77672016 0.19052724 8.77672016 -3 8 C-7.67015309 7.60461298 -7.67015309 7.60461298 -12 9.0625 C-13.23709936 11.14801654 -13.23709936 11.14801654 -13.25 14.4375 C-12.41067505 17.97106484 -12.41067505 17.97106484 -10.3046875 19.1328125 C-8.77876396 19.78365444 -7.23638415 20.39661956 -5.68359375 20.98046875 C0.41143215 23.29604627 6.2099432 26.08505551 10.6875 30.875 C12.60962085 35.45147821 12.99290422 39.33455658 11.26953125 43.9609375 C9.21729302 47.93139024 7.04876516 50.17805568 3 52 C-2.71800042 53.68106845 -8.08088436 53.60771995 -13.75 51.8125 C-18.99070548 48.88979887 -22.18480229 45.77562907 -24 40 C-21.35261084 38.5393715 -20.10551666 38 -17 38 C-16.401875 38.78375 -15.80375 39.5675 -15.1875 40.375 C-12.51488523 43.58213773 -11.08404018 44.22942638 -7 45 C-3.96308967 44.86082899 -0.99847695 44.49308288 2 44 C2.2475 42.7625 2.495 41.525 2.75 40.25 C2.88921875 39.55390625 3.0284375 38.8578125 3.171875 38.140625 C3.17890431 35.85347136 3.17890431 35.85347136 1.44140625 33.90625 C-1.49740156 31.61162886 -4.31698056 30.53762363 -7.8125 29.25 C-13.97460907 26.77445216 -18.89571272 24.09730979 -22 18 C-22.89206398 14.74593012 -22.93651594 12.245813 -22 9 C-16.73026552 0.14415228 -9.81156906 -1.07848346 0 0 Z " fill="#33CAB4" transform="translate(1066,2323)"/>
<path d="M0 0 C3 2.4375 3 2.4375 5 5 C5.125 7.1875 5.125 7.1875 4 9 C1.4375 10.25 1.4375 10.25 -1 11 C-1.8971875 9.7934375 -1.8971875 9.7934375 -2.8125 8.5625 C-4.80947276 5.77672016 -4.80947276 5.77672016 -8 5 C-11.68382769 4.86843473 -14.49053585 4.83017862 -18 6 C-18.49542227 10.85785746 -18.49542227 10.85785746 -16.41796875 15.05078125 C-12.53460735 18.18131007 -8.03029124 19.56590957 -3.41015625 21.33984375 C1.36039256 23.66227587 4.08466689 26.62700033 7 31 C7.54669907 37.77906851 6.55736331 40.91352704 2.1875 46.1875 C-2.66678815 50.20962447 -8.14809708 50.50335516 -14.24609375 50.37890625 C-19.34136096 49.6778553 -23.0451389 47.26498071 -26.37890625 43.40234375 C-27.88684308 41.26391069 -29 39.66730119 -29 37 C-26.35261084 35.5393715 -25.10551666 35 -22 35 C-20.28859531 36.96185416 -18.62126675 38.96302383 -17 41 C-14.44384834 42.27807583 -12.89645757 41.99968789 -10.0625 41.75 C-9.18722656 41.68296875 -8.31195312 41.6159375 -7.41015625 41.546875 C-4.65766358 40.92232237 -3.683498 40.2319925 -2 38 C-1.41649495 35.54290625 -1.41649495 35.54290625 -2 33 C-5.07817893 29.18999912 -8.43449091 27.76852438 -12.9375 26 C-23.29453957 21.92364646 -23.29453957 21.92364646 -26.3125 16.75 C-27.51624231 11.93503077 -27.78972891 7.77689005 -25.75 3.1875 C-19.2432074 -4.94599075 -8.66157738 -4.83049507 0 0 Z " fill="#33CAB5" transform="translate(2304,2326)"/>
<path d="M0 0 C2.97 0 5.94 0 9 0 C7.27145799 5.66973559 4.87584033 10.9915133 2.46484375 16.39453125 C2.02612442 17.38249191 1.58740509 18.37045258 1.13539124 19.38835144 C0.21132362 21.46742906 -0.71412467 23.5458935 -1.64086914 25.6237793 C-3.06457104 28.81714536 -4.48277595 32.01291212 -5.90039062 35.20898438 C-6.7991532 37.22931171 -7.69823066 39.249499 -8.59765625 41.26953125 C-9.02369644 42.22986771 -9.44973663 43.19020416 -9.88868713 44.17964172 C-10.28257126 45.06113388 -10.67645538 45.94262604 -11.08227539 46.85083008 C-11.42932022 47.6299324 -11.77636505 48.40903473 -12.13392639 49.21174622 C-13 51 -13 51 -14 52 C-16.33297433 52.04092937 -18.66705225 52.04241723 -21 52 C-25.76350935 42.77112902 -30.07222463 33.36688673 -34.28857422 23.87866211 C-35.38817263 21.40790153 -36.4966821 18.94125795 -37.60546875 16.47460938 C-38.30783423 14.8986792 -39.00967703 13.32251594 -39.7109375 11.74609375 C-40.04209564 11.0117662 -40.37325378 10.27743866 -40.71444702 9.52085876 C-42.04060522 6.51666779 -43 4.32159757 -43 1 C-40.36 1 -37.72 1 -35 1 C-30.19701903 11.06717535 -25.68171961 21.23948762 -21.28955078 31.49243164 C-20.67055908 32.93090454 -20.67055908 32.93090454 -20.0390625 34.3984375 C-19.66990723 35.26130371 -19.30075195 36.12416992 -18.92041016 37.01318359 C-18.15897729 38.95581442 -18.15897729 38.95581442 -17 40 C-15.38174633 36.23244883 -13.76436056 32.46452629 -12.14770508 28.69628906 C-11.60007958 27.42015036 -11.0522357 26.14410535 -10.50415039 24.86816406 C-6.95251865 16.59947054 -3.44156685 8.3152727 0 0 Z " fill="#33C9B4" transform="translate(1838,2323)"/>
<path d="M0 0 C3.16831805 -0.60695748 5.84661278 -0.75299141 9 0 C12.02363864 2.69620952 13.97142881 5.93030048 16.0625 9.375 C16.64193359 10.26445312 17.22136719 11.15390625 17.81835938 12.0703125 C22 18.58715503 22 18.58715503 22 21 C25.80660664 17.54832172 28.41572433 13.59023309 31.1875 9.3125 C35.91047297 2.08952703 35.91047297 2.08952703 37 1 C38.51928038 0.92820036 40.04167482 0.91607993 41.5625 0.9375 C42.38878906 0.94652344 43.21507812 0.95554687 44.06640625 0.96484375 C44.70449219 0.97644531 45.34257812 0.98804687 46 1 C43.80521243 5.11315352 41.45397148 8.79291699 38.58203125 12.46875 C28.65162282 25.52144543 25.80156848 35.65509968 27 52 C24.36 52 21.72 52 19 52 C19.0220752 51.34628418 19.04415039 50.69256836 19.06689453 50.01904297 C19.4012148 35.93549219 18.99180371 26.15475423 9.34423828 15.546875 C7.08726086 12.94967033 5.26846202 10.12237172 3.375 7.25 C2.72273438 6.28578125 2.07046875 5.3215625 1.3984375 4.328125 C0 2 0 2 0 0 Z " fill="#33CAB5" transform="translate(386,2323)"/>
<path d="M0 0 C11.55 0 23.1 0 35 0 C35 2.31 35 4.62 35 7 C30.71 7 26.42 7 22 7 C22 21.52 22 36.04 22 51 C19.36 51 16.72 51 14 51 C14 36.48 14 21.96 14 7 C9.38 7 4.76 7 0 7 C0 4.69 0 2.38 0 0 Z " fill="#33CAB5" transform="translate(2750,2324)"/>
<path d="M0 0 C11.55 0 23.1 0 35 0 C35 2.31 35 4.62 35 7 C30.38 7 25.76 7 21 7 C21 21.52 21 36.04 21 51 C18.36 51 15.72 51 13 51 C13 36.48 13 21.96 13 7 C8.71 7 4.42 7 0 7 C0 4.69 0 2.38 0 0 Z " fill="#34CBB5" transform="translate(2487,2324)"/>
<path d="M0 0 C11.55 0 23.1 0 35 0 C35 2.31 35 4.62 35 7 C30.38 7 25.76 7 21 7 C21 21.52 21 36.04 21 51 C18.36 51 15.72 51 13 51 C13 36.48 13 21.96 13 7 C8.71 7 4.42 7 0 7 C0 4.69 0 2.38 0 0 Z " fill="#34CCB6" transform="translate(1539,2324)"/>
<path d="M0 0 C2.64 0 5.28 0 8 0 C8 14.52 8 29.04 8 44 C15.26 44 22.52 44 30 44 C30 46.31 30 48.62 30 51 C20.1 51 10.2 51 0 51 C0 34.17 0 17.34 0 0 Z " fill="#34CFB9" transform="translate(1968,2324)"/>
<path d="M0 0 C2.64 0 5.28 0 8 0 C8 14.52 8 29.04 8 44 C15.26 44 22.52 44 30 44 C30 46.31 30 48.62 30 51 C20.1 51 10.2 51 0 51 C0 34.17 0 17.34 0 0 Z " fill="#34CCB6" transform="translate(1405,2324)"/>
<path d="M0 0 C2.64 0 5.28 0 8 0 C8 16.83 8 33.66 8 51 C5.36 51 2.72 51 0 51 C0 34.17 0 17.34 0 0 Z " fill="#34CEB8" transform="translate(2356,2324)"/>
<path d="M0 0 C14.19642857 -0.66964286 14.19642857 -0.66964286 17.875 2 C20.24180932 5.34137787 20.77144536 7.06326013 20.46875 11.06640625 C19.73623313 14.08803835 18.19716904 15.86745358 16 18 C11.53794887 20.23102556 4.78092876 19.04346299 0 19 C0 12.73 0 6.46 0 0 Z " fill="#121817" transform="translate(1627,2331)"/>
<path d="M0 0 C13.24210988 -0.49503214 13.24210988 -0.49503214 16.89453125 1.890625 C19.97227233 4.97407617 19.97227233 4.97407617 20.0546875 8.0234375 C19.99539063 8.79945313 19.93609375 9.57546875 19.875 10.375 C19.83117187 11.14585937 19.78734375 11.91671875 19.7421875 12.7109375 C18.63890721 16.11368617 17.04587392 17.18805347 14 19 C9.27267379 19.52005789 4.77279398 19.1784222 0 19 C0 12.73 0 6.46 0 0 Z " fill="#111515" transform="translate(668,2331)"/>
<path d="M0 0 C12.94619459 -0.60496236 12.94619459 -0.60496236 17.375 1.9375 C19.55889385 6.05329995 19.94728653 9.43424959 19 14 C17.12379387 16.50160818 15.76108697 17.61945652 13 19 C8.66396021 19.1393329 4.33919329 19.04254111 0 19 C0 12.73 0 6.46 0 0 Z " fill="#111313" transform="translate(970,2331)"/>
<path d="M0 0 C12.94619459 -0.60496236 12.94619459 -0.60496236 17.375 1.9375 C19.55889385 6.05329995 19.94728653 9.43424959 19 14 C17.12379387 16.50160818 15.76108697 17.61945652 13 19 C8.66396021 19.1393329 4.33919329 19.04254111 0 19 C0 12.73 0 6.46 0 0 Z " fill="#111313" transform="translate(812,2331)"/>
<path d="M0 0 C3.18410503 3.18410503 4.41039519 7.32063086 6.125 11.4375 C6.68380859 12.74557617 6.68380859 12.74557617 7.25390625 14.08007812 C7.60582031 14.91861328 7.95773437 15.75714844 8.3203125 16.62109375 C8.64273926 17.3886499 8.96516602 18.15620605 9.29736328 18.94702148 C10 21 10 21 10 24 C3.4 24 -3.2 24 -10 24 C-8.0094197 18.02825911 -6.01941634 12.54912406 -3.3125 6.9375 C-2.99216797 6.26267578 -2.67183594 5.58785156 -2.34179688 4.89257812 C-1.56580539 3.25952141 -0.78358474 1.62942689 0 0 Z " fill="#131E1C" transform="translate(1334,2334)"/>
<path d="M0 0 C0.66 0 1.32 0 2 0 C3.50585523 3.45581315 5.00368289 6.91504753 6.5 10.375 C7.14388672 11.85226563 7.14388672 11.85226563 7.80078125 13.359375 C8.40986328 14.77089844 8.40986328 14.77089844 9.03125 16.2109375 C9.40830078 17.08024902 9.78535156 17.94956055 10.17382812 18.84521484 C11 21 11 21 11 23 C4.4 23 -2.2 23 -9 23 C-7.08659036 17.25977108 -5.21389186 11.93401914 -2.8125 6.4375 C-2.40354492 5.49680664 -2.40354492 5.49680664 -1.98632812 4.53710938 C-1.32762687 3.0232521 -0.66432675 1.5113971 0 0 Z " fill="#131D1C" transform="translate(2590,2335)"/>
<path d="M0 0 C0.66 0 1.32 0 2 0 C3.50585523 3.45581315 5.00368289 6.91504753 6.5 10.375 C7.14388672 11.85226563 7.14388672 11.85226563 7.80078125 13.359375 C8.40986328 14.77089844 8.40986328 14.77089844 9.03125 16.2109375 C9.40830078 17.08024902 9.78535156 17.94956055 10.17382812 18.84521484 C11 21 11 21 11 23 C4.4 23 -2.2 23 -9 23 C-7.08659036 17.25977108 -5.21389186 11.93401914 -2.8125 6.4375 C-2.40354492 5.49680664 -2.40354492 5.49680664 -1.98632812 4.53710938 C-1.32762687 3.0232521 -0.66432675 1.5113971 0 0 Z " fill="#131D1C" transform="translate(2126,2335)"/>
<path d="M0 0 C3.09421227 3.64641016 4.81303755 7.71484283 6.6875 12.0625 C7.00783203 12.78244141 7.32816406 13.50238281 7.65820312 14.24414062 C8.99235942 17.30786415 10 19.62278005 10 23 C3.73 23 -2.54 23 -9 23 C-7.08659036 17.25977108 -5.21389186 11.93401914 -2.8125 6.4375 C-2.40354492 5.49680664 -2.40354492 5.49680664 -1.98632812 4.53710938 C-1.32762687 3.0232521 -0.66432675 1.5113971 0 0 Z " fill="#121616" transform="translate(1726,2334)"/>
</svg>
