<svg width="273" height="39" viewBox="0 0 273 39" fill="none" xmlns="http://www.w3.org/2000/svg">
<path d="M266.538 2.98167V4.10096H264.936V8.9173H263.766V4.10096H262.171V2.98167H266.538Z" fill="black"/>
<path d="M273 2.98167V8.9173H271.838V5.06762L270.168 7.82344H270.032L268.362 5.0761V8.9173H267.192V2.98167H268.396L270.1 5.78837L271.796 2.98167H273Z" fill="black"/>
<path d="M139.965 11.388C141.276 9.4454 143.354 8.47377 146.198 8.47376C148.485 8.47376 150.368 9.2373 151.846 10.7637C153.352 12.29 154.105 14.3991 154.106 17.091V29.871H148.709V17.7571C148.709 16.3695 148.332 15.3147 147.579 14.5932C146.826 13.8441 145.822 13.4695 144.567 13.4694C143.173 13.4694 142.057 13.8995 141.22 14.7598C140.383 15.6201 139.965 16.9106 139.965 18.6311V29.871H134.568V14.3196H133.981C133.228 14.3197 132.554 14.7892 132.296 15.4939L127.016 29.9302C125.928 32.9274 124.478 35.0921 122.665 36.4242C120.88 37.7841 118.648 38.3947 115.971 38.2559V33.2609C117.421 33.2886 118.565 32.9833 119.402 32.345C120.266 31.7067 120.949 30.6795 121.451 29.2641L112.875 9.11607H118.774L124.213 23.1035L127.637 12.7893C128.365 10.597 130.424 9.11609 132.744 9.11607H134.568V0.239685H139.965V11.388Z" fill="black"/>
<path fill-rule="evenodd" clip-rule="evenodd" d="M33.2652 8.53358C36.3608 8.53364 38.9823 9.60201 41.1297 11.7388C43.2771 13.8479 44.3513 16.4428 44.3513 19.5232C44.3513 22.6037 43.2772 25.2125 41.1297 27.3494C38.9822 29.4585 36.3609 30.5133 33.2652 30.5133C30.1695 30.5133 27.5477 29.4585 25.4002 27.3494C23.2806 25.2125 22.2206 22.6037 22.2206 19.5232C22.2206 16.4428 23.2806 13.8479 25.4002 11.7388C27.5477 9.60194 30.1695 8.53358 33.2652 8.53358ZM33.2652 13.7789C31.6477 13.7789 30.2949 14.3199 29.2072 15.4021C28.1475 16.4844 27.6175 17.8581 27.6174 19.5232C27.6174 21.1883 28.1474 22.5624 29.2072 23.6448C30.2949 24.727 31.6477 25.268 33.2652 25.268C34.8826 25.2679 36.235 24.7269 37.3226 23.6448C38.4103 22.5624 38.9545 21.1883 38.9545 19.5232C38.9544 17.8581 38.4103 16.4844 37.3226 15.4021C36.235 14.32 34.8826 13.779 33.2652 13.7789Z" fill="black"/>
<path fill-rule="evenodd" clip-rule="evenodd" d="M86.3663 29.9302H80.9695V27.4742C79.3798 29.5001 77.1208 30.5133 74.1924 30.5133C71.3755 30.5133 68.9628 29.4585 66.9548 27.3494C64.9747 25.2125 63.9847 22.6036 63.9847 19.5232C63.9847 16.4428 64.9746 13.8479 66.9548 11.7388C68.9628 9.60183 71.3755 8.53358 74.1924 8.53358C77.1207 8.53359 79.3798 9.54631 80.9695 11.5721V0.239685H86.3663V29.9302ZM75.1962 13.6535C73.5229 13.6535 72.1283 14.209 71.0128 15.3191C69.9252 16.4014 69.3816 17.8027 69.3815 19.5232C69.3815 21.2438 69.9251 22.6595 71.0128 23.7696C72.1283 24.8519 73.5229 25.3928 75.1962 25.3928C76.8696 25.3928 78.2506 24.852 79.3383 23.7696C80.4259 22.6595 80.9695 21.2438 80.9695 19.5232C80.9695 17.8027 80.4258 16.4014 79.3383 15.3191C78.2506 14.209 76.8696 13.6535 75.1962 13.6535Z" fill="black"/>
<path fill-rule="evenodd" clip-rule="evenodd" d="M98.9454 8.53358C101.874 8.53358 104.147 9.54675 105.765 11.5727V9.11607H111.161V29.9302H105.765V27.4742C104.147 29.5002 101.874 30.5133 98.9454 30.5133C96.1564 30.5133 93.7578 29.4585 91.7498 27.3494C89.7697 25.2125 88.7797 22.6036 88.7797 19.5232C88.7797 16.4428 89.7696 13.8479 91.7498 11.7388C93.7578 9.60187 96.1564 8.53362 98.9454 8.53358ZM99.9498 13.6541C98.2764 13.6541 96.8954 14.209 95.8077 15.3191C94.7202 16.4014 94.1765 17.8027 94.1765 19.5232C94.1765 21.2438 94.72 22.6595 95.8077 23.7696C96.8954 24.852 98.2764 25.3928 99.9498 25.3928C101.623 25.3928 103.004 24.8519 104.091 23.7696C105.207 22.6595 105.765 21.2438 105.765 19.5232C105.764 17.8027 105.207 16.4014 104.091 15.3191C103.004 14.2091 101.623 13.6541 99.9498 13.6541Z" fill="black"/>
<path fill-rule="evenodd" clip-rule="evenodd" d="M167.236 8.47434C170.304 8.47441 172.828 9.5286 174.808 11.6377C176.816 13.7469 177.82 16.3557 177.82 19.4639C177.82 20.1577 177.75 20.8931 177.611 21.6702H161.839C162.564 24.2789 164.531 25.5833 167.738 25.5833C169.802 25.5833 171.364 24.8895 172.423 23.5019L176.774 25.9997C174.71 28.9692 171.67 30.4541 167.654 30.4541C164.196 30.454 161.421 29.4133 159.329 27.332C157.237 25.2505 156.191 22.6277 156.191 19.4639C156.191 16.3279 157.223 13.7191 159.287 11.6377C161.351 9.52853 164.001 8.47434 167.236 8.47434ZM167.236 13.3027C165.786 13.3027 164.586 13.6777 163.638 14.4271C162.69 15.1486 162.062 16.1753 161.755 17.5074H172.423C172.117 16.092 171.475 15.0372 170.499 14.3434C169.551 13.6497 168.463 13.3028 167.236 13.3027Z" fill="black"/>
<path fill-rule="evenodd" clip-rule="evenodd" d="M204.006 8.47434C207.102 8.47441 209.723 9.5427 211.87 11.6795C214.018 13.7887 215.092 16.3834 215.092 19.4639C215.092 22.5444 214.018 25.1532 211.87 27.2901C209.723 29.3992 207.102 30.454 204.006 30.4541C200.91 30.4541 198.288 29.3992 196.141 27.2901C194.021 25.1532 192.961 22.5444 192.961 19.4639C192.961 16.3834 194.021 13.7887 196.141 11.6795C198.288 9.54263 200.91 8.47434 204.006 8.47434ZM204.006 13.7191C202.388 13.7191 201.036 14.2606 199.948 15.3429C198.888 16.4252 198.358 17.7988 198.358 19.4639C198.358 21.1291 198.888 22.5026 199.948 23.5849C201.036 24.6673 202.388 25.2087 204.006 25.2087C205.623 25.2087 206.976 24.6672 208.063 23.5849C209.151 22.5026 209.695 21.1291 209.695 19.4639C209.695 17.7988 209.151 16.4252 208.063 15.3429C206.976 14.2607 205.623 13.7192 204.006 13.7191Z" fill="black"/>
<path fill-rule="evenodd" clip-rule="evenodd" d="M228.009 8.47434C231.077 8.47441 233.601 9.5286 235.581 11.6377C237.589 13.7469 238.593 16.3557 238.593 19.4639C238.593 20.1577 238.523 20.8931 238.384 21.6702H222.612C223.337 24.2789 225.304 25.5833 228.511 25.5833C230.575 25.5833 232.137 24.8895 233.196 23.5019L237.547 25.9997C235.483 28.9692 232.443 30.4541 228.427 30.4541C224.969 30.454 222.194 29.4133 220.102 27.332C218.01 25.2505 216.964 22.6277 216.964 19.4639C216.964 16.3279 217.996 13.7191 220.06 11.6377C222.124 9.52853 224.774 8.47434 228.009 8.47434ZM228.009 13.3027C226.559 13.3027 225.359 13.6777 224.411 14.4271C223.463 15.1486 222.835 16.1753 222.528 17.5074H233.196C232.89 16.092 232.248 15.0372 231.272 14.3434C230.324 13.6497 229.236 13.3028 228.009 13.3027Z" fill="black"/>
<path d="M248.111 8.47434C249.812 8.47434 251.36 8.86285 252.755 9.63991C254.149 10.3892 255.251 11.4716 256.06 12.8869L251.458 15.3841C250.789 13.9689 249.673 13.2615 248.111 13.2615C247.414 13.2615 246.828 13.4139 246.354 13.7191C245.908 14.0244 245.685 14.441 245.685 14.9683C245.685 15.5233 246.048 15.9811 246.773 16.3418C247.526 16.6748 248.432 16.9801 249.492 17.2576C250.552 17.5074 251.612 17.8403 252.672 18.2565C253.731 18.6451 254.624 19.3114 255.349 20.2549C256.102 21.1985 256.478 22.3781 256.478 23.7934C256.478 25.9303 255.669 27.5817 254.052 28.7473C252.462 29.885 250.468 30.4541 248.07 30.4541C243.775 30.4541 240.846 28.8027 239.284 25.5003L243.97 22.8776C244.583 24.6814 245.95 25.5833 248.07 25.5833C249.994 25.5833 250.956 24.9867 250.956 23.7934C250.956 23.2384 250.579 22.7942 249.826 22.4612C249.101 22.1004 248.209 21.781 247.149 21.5035C246.089 21.226 245.029 20.8791 243.97 20.4628C242.91 20.0465 242.003 19.3943 241.25 18.5063C240.525 17.5905 240.163 16.4529 240.163 15.0932C240.163 13.0395 240.916 11.4298 242.422 10.2642C243.956 9.07092 245.852 8.47439 248.111 8.47434Z" fill="black"/>
<path d="M5.39684 11.4472C6.70767 9.50474 8.7854 8.53358 11.63 8.53358C13.917 8.53358 15.7997 9.29656 17.2778 10.8229C18.7839 12.3493 19.5371 14.4588 19.5371 17.1508V29.9302H14.1402V17.8169C14.1402 16.4293 13.7633 15.3745 13.0103 14.653C12.2574 13.9038 11.2536 13.5287 9.99877 13.5286C8.60428 13.5286 7.48834 13.9593 6.65165 14.8196C5.81506 15.68 5.39684 16.9704 5.39684 18.6909V29.9302H0V0.239685H5.39684V11.4472Z" fill="black"/>
<path d="M52.1101 29.9302H46.7133V0.239685H52.1101V29.9302Z" fill="black"/>
<path d="M61.6093 29.9302H56.2125V9.11607H61.6093V29.9302Z" fill="black"/>
<path d="M192.506 14.635C190.861 14.4407 189.382 14.7736 188.072 15.6339C186.789 16.4942 186.147 17.924 186.147 19.9221V29.871H180.751V9.05684H186.147V12.6372C186.649 11.3051 187.472 10.306 188.616 9.63991C189.787 8.97386 191.084 8.64044 192.506 8.64044V14.635Z" fill="black"/>
<path d="M58.8902 0C59.8104 3.95978e-05 60.5914 0.332881 61.2328 0.998895C61.9021 1.66492 62.2367 2.44202 62.2367 3.33004C62.2367 4.21806 61.9021 4.99515 61.2328 5.66118C60.5914 6.29944 59.8104 6.6188 58.8902 6.61884C57.9977 6.61884 57.2168 6.29941 56.5475 5.66118C55.906 4.99514 55.5851 4.21808 55.585 3.33004C55.585 2.44197 55.906 1.66495 56.5475 0.998895C57.2168 0.332876 57.9977 0 58.8902 0Z" fill="black"/>
</svg>
