<svg width="1120" height="400" viewBox="0 0 1120 400" fill="none" xmlns="http://www.w3.org/2000/svg">
<path fill-rule="evenodd" clip-rule="evenodd" d="M402.067 100C430.148 100 453.927 109.723 473.407 129.167C492.886 148.359 502.626 171.969 502.626 199.999C502.626 228.03 492.886 251.768 473.407 271.212C453.927 290.404 430.148 300 402.067 300C373.987 300 350.207 290.404 330.728 271.212C311.502 251.768 301.889 228.03 301.889 199.999C301.889 171.969 311.502 148.359 330.728 129.167C350.207 109.723 373.987 100 402.067 100ZM402.067 147.728C387.395 147.728 375.125 152.652 365.259 162.501C355.647 172.349 350.84 184.848 350.84 199.999C350.84 215.151 355.647 227.651 365.259 237.499C375.125 247.348 387.395 252.272 402.067 252.272C416.74 252.272 429.009 247.348 438.875 237.499C448.741 227.651 453.675 215.151 453.675 199.999C453.675 184.848 448.741 172.349 438.875 162.501C429.009 152.652 416.74 147.728 402.067 147.728Z" fill="url(#paint0_linear_448_273)"/>
<path fill-rule="evenodd" clip-rule="evenodd" d="M792.115 100C819.943 100 842.837 109.596 860.799 128.788C879.013 147.98 888.119 171.717 888.12 199.999C888.12 206.312 887.487 213.004 886.222 220.075H743.165C749.742 243.812 767.577 255.682 796.669 255.682C815.389 255.682 829.556 249.368 839.169 236.742L878.634 259.469C859.914 286.49 832.339 300 795.91 300C764.541 300 739.37 290.53 720.397 271.591C701.424 252.652 691.937 228.787 691.937 199.999C691.937 171.464 701.298 147.727 720.018 128.788C738.738 109.596 762.77 100 792.115 100ZM792.115 143.939C778.961 143.939 768.083 147.348 759.482 154.166C750.88 160.732 745.189 170.076 742.406 182.197H839.169C836.386 169.319 830.568 159.722 821.714 153.409C813.113 147.096 803.246 143.939 792.115 143.939Z" fill="url(#paint1_linear_448_273)"/>
<path d="M209.844 100C231.599 100 248.929 107.07 261.831 121.212C274.986 135.353 281.563 154.293 281.563 178.031V294.696H232.613V181.439C232.612 170.076 229.83 161.237 224.264 154.924C218.699 148.611 210.856 145.454 200.737 145.454C189.606 145.454 180.878 149.116 174.554 156.44C168.483 163.763 165.447 174.369 165.447 188.258V294.696H116.495V181.439C116.495 170.075 113.713 161.238 108.147 154.924C102.582 148.611 94.74 145.454 84.6211 145.454C73.7431 145.454 65.0153 149.116 58.4379 156.44C52.1135 163.763 48.9508 174.369 48.9508 188.258V294.696H0V105.303H48.9508V125.378C60.3347 108.459 77.9168 100 101.696 100C124.97 100 142.174 109.091 153.305 127.273C165.953 109.091 184.799 100 209.844 100Z" fill="url(#paint2_linear_448_273)"/>
<path d="M596.815 237.877L643.11 105.303H696.995L624.896 294.696H569.115L497.016 105.303H550.901L596.815 237.877Z" fill="url(#paint3_linear_448_273)"/>
<path d="M971.017 100C991.093 100 1007.37 116.274 1007.37 136.348C1007.37 156.422 991.092 172.695 971.017 172.695C950.942 172.695 934.666 156.422 934.666 136.348C934.666 116.274 950.941 100 971.017 100Z" fill="url(#paint4_linear_448_273)"/>
<path d="M1072.65 100C1092.73 100 1109 116.274 1109 136.348C1109 156.422 1092.73 172.695 1072.65 172.695C1052.57 172.695 1036.3 156.422 1036.3 136.348C1036.3 116.274 1052.57 100 1072.65 100Z" fill="url(#paint5_linear_448_273)"/>
<defs>
<linearGradient id="paint0_linear_448_273" x1="46.1183" y1="200" x2="1062.88" y2="200" gradientUnits="userSpaceOnUse">
<stop stop-color="#152656"/>
<stop offset="1" stop-color="#3689FB"/>
</linearGradient>
<linearGradient id="paint1_linear_448_273" x1="46.1183" y1="200" x2="1062.88" y2="200" gradientUnits="userSpaceOnUse">
<stop stop-color="#152656"/>
<stop offset="1" stop-color="#3689FB"/>
</linearGradient>
<linearGradient id="paint2_linear_448_273" x1="46.1183" y1="200" x2="1062.88" y2="200" gradientUnits="userSpaceOnUse">
<stop stop-color="#152656"/>
<stop offset="1" stop-color="#3689FB"/>
</linearGradient>
<linearGradient id="paint3_linear_448_273" x1="46.1183" y1="200" x2="1062.88" y2="200" gradientUnits="userSpaceOnUse">
<stop stop-color="#152656"/>
<stop offset="1" stop-color="#3689FB"/>
</linearGradient>
<linearGradient id="paint4_linear_448_273" x1="46.1183" y1="200" x2="1062.88" y2="200" gradientUnits="userSpaceOnUse">
<stop stop-color="#152656"/>
<stop offset="1" stop-color="#3689FB"/>
</linearGradient>
<linearGradient id="paint5_linear_448_273" x1="46.1183" y1="200" x2="1062.88" y2="200" gradientUnits="userSpaceOnUse">
<stop stop-color="#152656"/>
<stop offset="1" stop-color="#3689FB"/>
</linearGradient>
</defs>
</svg>
