<svg width="1920" height="1080" viewBox="0 0 1920 1080" fill="none" xmlns="http://www.w3.org/2000/svg">
<rect width="1920" height="1080" fill="white"/>
<path d="M836.124 460.805C858.429 460.805 877.316 468.544 892.789 484.021C908.262 499.298 915.999 518.09 915.999 540.401C915.999 562.713 908.262 581.608 892.789 597.085C877.317 612.361 858.428 620 836.124 620C813.819 620 794.929 612.361 779.456 597.085C764.184 581.608 756.55 562.713 756.55 540.401C756.55 518.091 764.185 499.297 779.456 484.021C794.929 468.544 813.819 460.805 836.124 460.805ZM1145.95 460.805C1168.05 460.805 1186.24 468.444 1200.51 483.72C1214.97 498.996 1222.21 517.89 1222.21 540.401C1222.21 545.426 1221.71 550.754 1220.7 556.382H1107.07C1112.29 575.276 1126.46 584.724 1149.57 584.724C1164.43 584.724 1175.69 579.698 1183.32 569.648L1214.67 587.737C1199.8 609.245 1177.9 620 1148.96 620C1124.05 620 1104.05 612.462 1088.98 597.387C1073.91 582.312 1066.37 563.315 1066.37 540.401C1066.37 517.689 1073.81 498.795 1088.68 483.72C1103.55 468.444 1122.64 460.805 1145.95 460.805ZM990.816 570.552L1027.59 465.025H1070.39L1013.12 615.777H968.813L911.544 465.025H954.346L990.816 570.552ZM678.213 460C695.494 460 716.793 465.628 727.041 476.884C737.49 488.14 742.716 503.215 742.716 522.109V614.973H703.831V524.823C703.831 515.779 701.622 508.744 697.201 503.719C692.781 498.694 686.552 496.182 678.515 496.182C669.673 496.182 662.739 499.095 657.716 504.924C652.893 510.753 650.482 519.195 650.482 530.25V614.973H611.599V524.823C611.599 515.779 609.388 508.744 604.968 503.719C600.547 498.694 594.317 496.182 586.279 496.182C577.639 496.182 570.708 499.096 565.483 504.924C560.46 510.753 557.947 519.195 557.947 530.25V614.973H519.063V522.109C519.064 506.482 525.397 486.381 536.646 476.884C549.205 466.281 566.286 460 584.772 460C603.259 460 621.948 467.235 630.79 481.707C640.837 467.236 658.32 460 678.213 460ZM836.124 498.795C824.469 498.795 814.722 502.714 806.885 510.553C799.249 518.392 795.432 528.342 795.432 540.401C795.432 552.461 799.25 562.411 806.885 570.25C814.722 578.089 824.469 582.01 836.124 582.01C847.778 582.01 857.524 578.089 865.36 570.25C873.197 562.411 877.117 552.461 877.117 540.401C877.117 528.342 873.197 518.392 865.36 510.553C857.524 502.714 847.778 498.795 836.124 498.795ZM1145.95 495.779C1135.5 495.779 1126.86 498.493 1120.03 503.92C1113.2 509.146 1108.67 516.583 1106.46 526.231H1183.32C1181.11 515.98 1176.49 508.341 1169.46 503.316C1162.63 498.291 1154.79 495.779 1145.95 495.779ZM1286.96 460C1302.92 460 1315.85 472.938 1315.85 488.896C1315.85 504.855 1302.92 517.793 1286.96 517.793C1271 517.793 1258.06 504.855 1258.06 488.896C1258.06 472.937 1271 460 1286.96 460ZM1372.04 460C1388 460 1400.94 472.937 1400.94 488.896C1400.94 504.855 1388 517.793 1372.04 517.793C1356.08 517.793 1343.14 504.855 1343.14 488.896C1343.14 472.937 1356.08 460 1372.04 460Z" fill="url(#paint0_linear_420_30)"/>
<defs>
<linearGradient id="paint0_linear_420_30" x1="519.063" y1="540" x2="1400.94" y2="540" gradientUnits="userSpaceOnUse">
<stop stop-color="#402CC4"/>
<stop offset="1" stop-color="#4380F1"/>
</linearGradient>
</defs>
</svg>
